<svg xmlns="http://www.w3.org/2000/svg" width="64" height="64" version="1.0" viewBox="0 0 48 48"><defs><clipPath id="a"><path d="M.488 0h47.02v47.02H.488Zm0 0"/></clipPath><clipPath id="b"><path d="M24 0C11.016 0 .488 10.527.488 23.512.488 36.496 11.016 47.02 24 47.02s23.512-10.524 23.512-23.508S36.984 0 24 0m0 0"/></clipPath><clipPath id="d"><path d="M4.777 4.262H42.98v38.203H4.777Zm0 0"/></clipPath><clipPath id="e"><path d="M18.11 14.758h11.78v17.496H18.11Zm0 0"/></clipPath><clipPath id="g"><path d="M15.898 21h16.16v15.309h-16.16Zm0 0"/></clipPath><clipPath id="h"><path d="M24.426 36.41h-6.102a2.42 2.42 0 0 1-2.426-2.426V23.508a2.42 2.42 0 0 1 2.426-2.426h6.106c4.226 0 7.664 3.438 7.664 7.664 0 4.227-3.442 7.664-7.668 7.664m-3.676-4.85h3.68a2.816 2.816 0 0 0 2.812-2.813 2.816 2.816 0 0 0-2.812-2.812h-3.68Zm0 0"/></clipPath><clipPath id="j"><path d="M15.898 10.594h16.16V26h-16.16Zm0 0"/></clipPath><clipPath id="k"><path d="M24.426 25.934h-6.102a2.423 2.423 0 0 1-2.426-2.426v-10.48a2.423 2.423 0 0 1 2.426-2.426h6.106c4.226 0 7.664 3.437 7.664 7.668 0 4.226-3.442 7.664-7.668 7.664m-3.676-4.852h3.68a2.816 2.816 0 0 0 2.812-2.812 2.82 2.82 0 0 0-2.816-2.817H20.75Zm0 0"/></clipPath><clipPath id="m"><path d="M15.898 10.594H21v25.715h-5.102Zm0 0"/></clipPath><clipPath id="n"><path d="M18.324 36.41a2.42 2.42 0 0 1-2.426-2.426V13.027a2.426 2.426 0 1 1 4.852 0v20.957a2.426 2.426 0 0 1-2.426 2.426m0 0"/></clipPath><linearGradient id="c" x1="0" x2="256" y1="128" y2="128" gradientTransform="translate(.49)scale(.18367)" gradientUnits="userSpaceOnUse"><stop offset="0" stop-color="#0097B2"/><stop offset=".008" stop-color="#0097B2"/><stop offset=".016" stop-color="#0198B1"/><stop offset=".023" stop-color="#0298B0"/><stop offset=".031" stop-color="#0399AF"/><stop offset=".039" stop-color="#0499AF"/><stop offset=".047" stop-color="#059AAE"/><stop offset=".055" stop-color="#069AAD"/><stop offset=".063" stop-color="#079BAD"/><stop offset=".07" stop-color="#089BAC"/><stop offset=".078" stop-color="#099CAB"/><stop offset=".086" stop-color="#0A9CAB"/><stop offset=".094" stop-color="#0B9DAA"/><stop offset=".102" stop-color="#0C9DA9"/><stop offset=".109" stop-color="#0D9EA8"/><stop offset=".117" stop-color="#0E9EA8"/><stop offset=".125" stop-color="#0F9FA7"/><stop offset=".133" stop-color="#109FA6"/><stop offset=".141" stop-color="#11A0A6"/><stop offset=".148" stop-color="#12A1A5"/><stop offset=".156" stop-color="#13A1A4"/><stop offset=".164" stop-color="#14A2A3"/><stop offset=".172" stop-color="#15A2A3"/><stop offset=".18" stop-color="#16A3A2"/><stop offset=".188" stop-color="#17A3A1"/><stop offset=".195" stop-color="#18A4A1"/><stop offset=".203" stop-color="#19A4A0"/><stop offset=".211" stop-color="#1AA59F"/><stop offset=".219" stop-color="#1BA59E"/><stop offset=".227" stop-color="#1CA69E"/><stop offset=".234" stop-color="#1DA69D"/><stop offset=".242" stop-color="#1EA79C"/><stop offset=".25" stop-color="#1FA79C"/><stop offset=".258" stop-color="#20A89B"/><stop offset=".266" stop-color="#21A89A"/><stop offset=".273" stop-color="#22A999"/><stop offset=".281" stop-color="#23A999"/><stop offset=".289" stop-color="#24AA98"/><stop offset=".297" stop-color="#25AA97"/><stop offset=".305" stop-color="#26AB97"/><stop offset=".313" stop-color="#27AB96"/><stop offset=".32" stop-color="#28AC95"/><stop offset=".328" stop-color="#29AC94"/><stop offset=".336" stop-color="#2AAD94"/><stop offset=".344" stop-color="#2BAD93"/><stop offset=".352" stop-color="#2CAE92"/><stop offset=".359" stop-color="#2DAE92"/><stop offset=".367" stop-color="#2EAF91"/><stop offset=".375" stop-color="#2FAF90"/><stop offset=".383" stop-color="#30B08F"/><stop offset=".391" stop-color="#31B08F"/><stop offset=".398" stop-color="#32B18E"/><stop offset=".406" stop-color="#33B28D"/><stop offset=".414" stop-color="#34B28D"/><stop offset=".422" stop-color="#35B38C"/><stop offset=".43" stop-color="#36B38B"/><stop offset=".438" stop-color="#37B48B"/><stop offset=".445" stop-color="#38B48A"/><stop offset=".453" stop-color="#39B589"/><stop offset=".461" stop-color="#3AB588"/><stop offset=".469" stop-color="#3BB688"/><stop offset=".477" stop-color="#3CB687"/><stop offset=".484" stop-color="#3DB786"/><stop offset=".492" stop-color="#3EB786"/><stop offset=".5" stop-color="#3EB885"/><stop offset=".508" stop-color="#3FB884"/><stop offset=".516" stop-color="#40B983"/><stop offset=".523" stop-color="#41B983"/><stop offset=".531" stop-color="#42BA82"/><stop offset=".539" stop-color="#43BA81"/><stop offset=".547" stop-color="#44BB81"/><stop offset=".555" stop-color="#45BB80"/><stop offset=".563" stop-color="#46BC7F"/><stop offset=".57" stop-color="#47BC7E"/><stop offset=".578" stop-color="#48BD7E"/><stop offset=".586" stop-color="#49BD7D"/><stop offset=".594" stop-color="#4ABE7C"/><stop offset=".602" stop-color="#4BBE7C"/><stop offset=".609" stop-color="#4CBF7B"/><stop offset=".617" stop-color="#4DBF7A"/><stop offset=".625" stop-color="#4EC079"/><stop offset=".633" stop-color="#4FC079"/><stop offset=".641" stop-color="#50C178"/><stop offset=".648" stop-color="#51C277"/><stop offset=".656" stop-color="#52C277"/><stop offset=".664" stop-color="#53C376"/><stop offset=".672" stop-color="#54C375"/><stop offset=".68" stop-color="#55C474"/><stop offset=".688" stop-color="#56C474"/><stop offset=".695" stop-color="#57C573"/><stop offset=".703" stop-color="#58C572"/><stop offset=".711" stop-color="#59C672"/><stop offset=".719" stop-color="#5AC671"/><stop offset=".727" stop-color="#5BC770"/><stop offset=".734" stop-color="#5CC76F"/><stop offset=".742" stop-color="#5DC86F"/><stop offset=".75" stop-color="#5EC86E"/><stop offset=".758" stop-color="#5FC96D"/><stop offset=".766" stop-color="#60C96D"/><stop offset=".773" stop-color="#61CA6C"/><stop offset=".781" stop-color="#62CA6B"/><stop offset=".789" stop-color="#63CB6B"/><stop offset=".797" stop-color="#64CB6A"/><stop offset=".805" stop-color="#65CC69"/><stop offset=".813" stop-color="#66CC68"/><stop offset=".82" stop-color="#67CD68"/><stop offset=".828" stop-color="#68CD67"/><stop offset=".836" stop-color="#69CE66"/><stop offset=".844" stop-color="#6ACE66"/><stop offset=".852" stop-color="#6BCF65"/><stop offset=".859" stop-color="#6CCF64"/><stop offset=".867" stop-color="#6DD063"/><stop offset=".875" stop-color="#6ED063"/><stop offset=".883" stop-color="#6FD162"/><stop offset=".891" stop-color="#70D261"/><stop offset=".898" stop-color="#71D261"/><stop offset=".906" stop-color="#72D360"/><stop offset=".914" stop-color="#73D35F"/><stop offset=".922" stop-color="#74D45E"/><stop offset=".93" stop-color="#75D45E"/><stop offset=".938" stop-color="#76D55D"/><stop offset=".945" stop-color="#77D55C"/><stop offset=".953" stop-color="#78D65C"/><stop offset=".961" stop-color="#79D65B"/><stop offset=".969" stop-color="#7AD75A"/><stop offset=".977" stop-color="#7BD759"/><stop offset=".984" stop-color="#7CD859"/><stop offset=".992" stop-color="#7CD858"/><stop offset="1" stop-color="#7DD957"/></linearGradient><linearGradient id="f" x1="0" x2="256" y1="190.09" y2="190.09" gradientTransform="translate(18.108 14.76)scale(.04603)" gradientUnits="userSpaceOnUse"><stop offset="0" stop-color="#00B2AD"/><stop offset=".008" stop-color="#00B2AD"/><stop offset=".016" stop-color="#01B2AC"/><stop offset=".023" stop-color="#02B3AC"/><stop offset=".031" stop-color="#02B3AC"/><stop offset=".039" stop-color="#03B3AC"/><stop offset=".047" stop-color="#04B4AB"/><stop offset=".055" stop-color="#04B4AB"/><stop offset=".063" stop-color="#05B4AB"/><stop offset=".07" stop-color="#06B5AA"/><stop offset=".078" stop-color="#06B5AA"/><stop offset=".086" stop-color="#07B5AA"/><stop offset=".094" stop-color="#08B5A9"/><stop offset=".102" stop-color="#08B6A9"/><stop offset=".109" stop-color="#09B6A9"/><stop offset=".117" stop-color="#0AB6A9"/><stop offset=".125" stop-color="#0BB7A8"/><stop offset=".133" stop-color="#0BB7A8"/><stop offset=".141" stop-color="#0CB7A8"/><stop offset=".148" stop-color="#0DB8A7"/><stop offset=".156" stop-color="#0DB8A7"/><stop offset=".164" stop-color="#0EB8A7"/><stop offset=".172" stop-color="#0FB9A7"/><stop offset=".18" stop-color="#0FB9A6"/><stop offset=".188" stop-color="#10B9A6"/><stop offset=".195" stop-color="#11B9A6"/><stop offset=".203" stop-color="#11BAA5"/><stop offset=".211" stop-color="#12BAA5"/><stop offset=".219" stop-color="#13BAA5"/><stop offset=".227" stop-color="#13BBA4"/><stop offset=".234" stop-color="#14BBA4"/><stop offset=".242" stop-color="#15BBA4"/><stop offset=".25" stop-color="#15BCA4"/><stop offset=".258" stop-color="#16BCA3"/><stop offset=".266" stop-color="#17BCA3"/><stop offset=".273" stop-color="#17BDA3"/><stop offset=".281" stop-color="#18BDA2"/><stop offset=".289" stop-color="#19BDA2"/><stop offset=".297" stop-color="#19BDA2"/><stop offset=".305" stop-color="#1ABEA1"/><stop offset=".313" stop-color="#1BBEA1"/><stop offset=".32" stop-color="#1CBEA1"/><stop offset=".328" stop-color="#1CBFA1"/><stop offset=".336" stop-color="#1DBFA0"/><stop offset=".344" stop-color="#1EBFA0"/><stop offset=".352" stop-color="#1EC0A0"/><stop offset=".359" stop-color="#1FC09F"/><stop offset=".367" stop-color="#20C09F"/><stop offset=".375" stop-color="#20C09F"/><stop offset=".383" stop-color="#21C19E"/><stop offset=".391" stop-color="#22C19E"/><stop offset=".398" stop-color="#22C19E"/><stop offset=".406" stop-color="#23C29E"/><stop offset=".414" stop-color="#24C29D"/><stop offset=".422" stop-color="#24C29D"/><stop offset=".43" stop-color="#25C39D"/><stop offset=".438" stop-color="#26C39C"/><stop offset=".445" stop-color="#26C39C"/><stop offset=".453" stop-color="#27C49C"/><stop offset=".461" stop-color="#28C49C"/><stop offset=".469" stop-color="#28C49B"/><stop offset=".477" stop-color="#29C49B"/><stop offset=".484" stop-color="#2AC59B"/><stop offset=".492" stop-color="#2AC59A"/><stop offset=".5" stop-color="#2BC59A"/><stop offset=".508" stop-color="#2CC69A"/><stop offset=".516" stop-color="#2CC699"/><stop offset=".523" stop-color="#2DC699"/><stop offset=".531" stop-color="#2EC799"/><stop offset=".539" stop-color="#2FC799"/><stop offset=".547" stop-color="#2FC798"/><stop offset=".555" stop-color="#30C798"/><stop offset=".563" stop-color="#31C898"/><stop offset=".57" stop-color="#31C897"/><stop offset=".578" stop-color="#32C897"/><stop offset=".586" stop-color="#33C997"/><stop offset=".594" stop-color="#33C996"/><stop offset=".602" stop-color="#34C996"/><stop offset=".609" stop-color="#35CA96"/><stop offset=".617" stop-color="#35CA96"/><stop offset=".625" stop-color="#36CA95"/><stop offset=".633" stop-color="#37CB95"/><stop offset=".641" stop-color="#37CB95"/><stop offset=".648" stop-color="#38CB94"/><stop offset=".656" stop-color="#39CB94"/><stop offset=".664" stop-color="#39CC94"/><stop offset=".672" stop-color="#3ACC94"/><stop offset=".68" stop-color="#3BCC93"/><stop offset=".688" stop-color="#3BCD93"/><stop offset=".695" stop-color="#3CCD93"/><stop offset=".703" stop-color="#3DCD92"/><stop offset=".711" stop-color="#3DCE92"/><stop offset=".719" stop-color="#3ECE92"/><stop offset=".727" stop-color="#3FCE91"/><stop offset=".734" stop-color="#40CE91"/><stop offset=".742" stop-color="#40CF91"/><stop offset=".75" stop-color="#41CF91"/><stop offset=".758" stop-color="#42CF90"/><stop offset=".766" stop-color="#42D090"/><stop offset=".773" stop-color="#43D090"/><stop offset=".781" stop-color="#44D08F"/><stop offset=".789" stop-color="#44D18F"/><stop offset=".797" stop-color="#45D18F"/><stop offset=".805" stop-color="#46D18E"/><stop offset=".813" stop-color="#46D28E"/><stop offset=".82" stop-color="#47D28E"/><stop offset=".828" stop-color="#48D28E"/><stop offset=".836" stop-color="#48D28D"/><stop offset=".844" stop-color="#49D38D"/><stop offset=".852" stop-color="#4AD38D"/><stop offset=".859" stop-color="#4AD38C"/><stop offset=".867" stop-color="#4BD48C"/><stop offset=".875" stop-color="#4CD48C"/><stop offset=".883" stop-color="#4CD48B"/><stop offset=".891" stop-color="#4DD58B"/><stop offset=".898" stop-color="#4ED58B"/><stop offset=".906" stop-color="#4ED58B"/><stop offset=".914" stop-color="#4FD58A"/><stop offset=".922" stop-color="#50D68A"/><stop offset=".93" stop-color="#50D68A"/><stop offset=".938" stop-color="#51D689"/><stop offset=".945" stop-color="#52D789"/><stop offset=".953" stop-color="#53D789"/><stop offset=".961" stop-color="#53D789"/><stop offset=".969" stop-color="#54D888"/><stop offset=".977" stop-color="#55D888"/><stop offset=".984" stop-color="#55D888"/><stop offset=".992" stop-color="#56D987"/><stop offset="1" stop-color="#57D987"/></linearGradient><linearGradient id="i" x1="220.328" x2="63.211" y1="538.186" y2="175.609" gradientTransform="translate(15.897 10.603)scale(.05162)" gradientUnits="userSpaceOnUse"><stop offset="0" stop-color="#FFF"/><stop offset=".25" stop-color="#FFF"/><stop offset=".315" stop-color="#FFF"/><stop offset=".375" stop-color="#FFF"/><stop offset=".438" stop-color="#FFF"/><stop offset=".469" stop-color="#FFF"/><stop offset=".484" stop-color="#FFF"/><stop offset=".492" stop-color="#FFF"/><stop offset=".5" stop-color="#FEFEFE"/><stop offset=".508" stop-color="#FDFDFD"/><stop offset=".516" stop-color="#FCFCFC"/><stop offset=".523" stop-color="#FBFBFB"/><stop offset=".531" stop-color="#FAFAFA"/><stop offset=".539" stop-color="#F9F9F9"/><stop offset=".547" stop-color="#F8F8F8"/><stop offset=".555" stop-color="#F7F7F7"/><stop offset=".563" stop-color="#F6F6F6"/><stop offset=".57" stop-color="#F5F5F5"/><stop offset=".578" stop-color="#F4F4F4"/><stop offset=".586" stop-color="#F3F3F3"/><stop offset=".594" stop-color="#F2F2F2"/><stop offset=".602" stop-color="#F1F1F1"/><stop offset=".609" stop-color="#F0F0F0"/><stop offset=".617" stop-color="#EFEFEF"/><stop offset=".625" stop-color="#EEE"/><stop offset=".633" stop-color="#EDEDED"/><stop offset=".641" stop-color="#ECECEC"/><stop offset=".648" stop-color="#EBEBEB"/><stop offset=".656" stop-color="#EAEAEA"/><stop offset=".664" stop-color="#E9E9E9"/><stop offset=".672" stop-color="#E8E8E8"/><stop offset=".68" stop-color="#E7E7E7"/><stop offset=".685" stop-color="#E6E6E6"/><stop offset=".688" stop-color="#E6E6E6"/><stop offset=".695" stop-color="#E5E5E5"/><stop offset=".703" stop-color="#E5E5E5"/><stop offset=".711" stop-color="#E4E4E4"/><stop offset=".719" stop-color="#E3E3E3"/><stop offset=".727" stop-color="#E2E2E2"/><stop offset=".734" stop-color="#E1E1E1"/><stop offset=".742" stop-color="#E0E0E0"/><stop offset=".75" stop-color="#DFDFDF"/><stop offset=".758" stop-color="#DEDEDE"/><stop offset=".766" stop-color="#DDD"/><stop offset=".773" stop-color="#DCDCDC"/><stop offset=".781" stop-color="#DBDBDB"/><stop offset=".789" stop-color="#DADADA"/><stop offset=".797" stop-color="#D9D9D9"/><stop offset=".813" stop-color="#D9D9D9"/><stop offset=".875" stop-color="#D9D9D9"/><stop offset="1" stop-color="#D9D9D9"/></linearGradient><linearGradient id="l" x1="323.51" x2="-31.631" y1="281.18" y2="48.221" gradientTransform="translate(15.897 10.603)scale(.05162)" gradientUnits="userSpaceOnUse"><stop offset="0" stop-color="#FFF"/><stop offset=".25" stop-color="#FFF"/><stop offset=".375" stop-color="#FFF"/><stop offset=".384" stop-color="#FFF"/><stop offset=".406" stop-color="#FFF"/><stop offset=".414" stop-color="#FFF"/><stop offset=".422" stop-color="#FEFEFE"/><stop offset=".43" stop-color="#FEFEFE"/><stop offset=".438" stop-color="#FDFDFD"/><stop offset=".445" stop-color="#FCFCFC"/><stop offset=".453" stop-color="#FBFBFB"/><stop offset=".461" stop-color="#FBFBFB"/><stop offset=".469" stop-color="#FAFAFA"/><stop offset=".477" stop-color="#F9F9F9"/><stop offset=".484" stop-color="#F9F9F9"/><stop offset=".492" stop-color="#F8F8F8"/><stop offset=".5" stop-color="#F7F7F7"/><stop offset=".508" stop-color="#F7F7F7"/><stop offset=".516" stop-color="#F6F6F6"/><stop offset=".523" stop-color="#F5F5F5"/><stop offset=".531" stop-color="#F5F5F5"/><stop offset=".539" stop-color="#F4F4F4"/><stop offset=".547" stop-color="#F3F3F3"/><stop offset=".555" stop-color="#F2F2F2"/><stop offset=".563" stop-color="#F2F2F2"/><stop offset=".57" stop-color="#F1F1F1"/><stop offset=".578" stop-color="#F0F0F0"/><stop offset=".586" stop-color="#F0F0F0"/><stop offset=".594" stop-color="#EFEFEF"/><stop offset=".602" stop-color="#EEE"/><stop offset=".609" stop-color="#EEE"/><stop offset=".616" stop-color="#EDEDED"/><stop offset=".617" stop-color="#ECECEC"/><stop offset=".625" stop-color="#ECECEC"/><stop offset=".633" stop-color="#EBEBEB"/><stop offset=".641" stop-color="#EBEBEB"/><stop offset=".648" stop-color="#EAEAEA"/><stop offset=".656" stop-color="#E9E9E9"/><stop offset=".664" stop-color="#E9E9E9"/><stop offset=".672" stop-color="#E8E8E8"/><stop offset=".68" stop-color="#E7E7E7"/><stop offset=".688" stop-color="#E7E7E7"/><stop offset=".695" stop-color="#E6E6E6"/><stop offset=".703" stop-color="#E5E5E5"/><stop offset=".711" stop-color="#E4E4E4"/><stop offset=".719" stop-color="#E4E4E4"/><stop offset=".727" stop-color="#E3E3E3"/><stop offset=".734" stop-color="#E2E2E2"/><stop offset=".742" stop-color="#E2E2E2"/><stop offset=".75" stop-color="#E1E1E1"/><stop offset=".758" stop-color="#E0E0E0"/><stop offset=".766" stop-color="#E0E0E0"/><stop offset=".773" stop-color="#DFDFDF"/><stop offset=".781" stop-color="#DEDEDE"/><stop offset=".789" stop-color="#DDD"/><stop offset=".797" stop-color="#DDD"/><stop offset=".805" stop-color="#DCDCDC"/><stop offset=".813" stop-color="#DBDBDB"/><stop offset=".82" stop-color="#DBDBDB"/><stop offset=".828" stop-color="#DADADA"/><stop offset=".844" stop-color="#D9D9D9"/><stop offset=".875" stop-color="#D9D9D9"/><stop offset="1" stop-color="#D9D9D9"/></linearGradient><linearGradient id="o" x1="41.933" x2="52.096" y1="498.824" y2="-.852" gradientTransform="translate(15.897 10.603)scale(.05162)" gradientUnits="userSpaceOnUse"><stop offset="0" stop-color="#FFF"/><stop offset=".004" stop-color="#FFF"/><stop offset=".5" stop-color="#FFF"/><stop offset=".531" stop-color="#FFF"/><stop offset=".539" stop-color="#FFF"/><stop offset=".547" stop-color="#FEFEFE"/><stop offset=".555" stop-color="#FEFEFE"/><stop offset=".563" stop-color="#FDFDFD"/><stop offset=".57" stop-color="#FCFCFC"/><stop offset=".578" stop-color="#FCFCFC"/><stop offset=".586" stop-color="#FBFBFB"/><stop offset=".594" stop-color="#FBFBFB"/><stop offset=".602" stop-color="#FAFAFA"/><stop offset=".609" stop-color="#F9F9F9"/><stop offset=".617" stop-color="#F9F9F9"/><stop offset=".625" stop-color="#F8F8F8"/><stop offset=".633" stop-color="#F8F8F8"/><stop offset=".641" stop-color="#F7F7F7"/><stop offset=".648" stop-color="#F6F6F6"/><stop offset=".656" stop-color="#F6F6F6"/><stop offset=".664" stop-color="#F5F5F5"/><stop offset=".672" stop-color="#F5F5F5"/><stop offset=".68" stop-color="#F4F4F4"/><stop offset=".688" stop-color="#F3F3F3"/><stop offset=".695" stop-color="#F3F3F3"/><stop offset=".703" stop-color="#F2F2F2"/><stop offset=".711" stop-color="#F2F2F2"/><stop offset=".719" stop-color="#F1F1F1"/><stop offset=".727" stop-color="#F0F0F0"/><stop offset=".734" stop-color="#F0F0F0"/><stop offset=".742" stop-color="#EFEFEF"/><stop offset=".75" stop-color="#EFEFEF"/><stop offset=".758" stop-color="#EEE"/><stop offset=".766" stop-color="#EDEDED"/><stop offset=".773" stop-color="#EDEDED"/><stop offset=".781" stop-color="#ECECEC"/><stop offset=".789" stop-color="#ECECEC"/><stop offset=".797" stop-color="#EBEBEB"/><stop offset=".805" stop-color="#EAEAEA"/><stop offset=".813" stop-color="#EAEAEA"/><stop offset=".82" stop-color="#E9E9E9"/><stop offset=".828" stop-color="#E9E9E9"/><stop offset=".836" stop-color="#E8E8E8"/><stop offset=".844" stop-color="#E7E7E7"/><stop offset=".852" stop-color="#E7E7E7"/><stop offset=".859" stop-color="#E6E6E6"/><stop offset=".867" stop-color="#E6E6E6"/><stop offset=".875" stop-color="#E5E5E5"/><stop offset=".883" stop-color="#E4E4E4"/><stop offset=".891" stop-color="#E4E4E4"/><stop offset=".898" stop-color="#E3E3E3"/><stop offset=".906" stop-color="#E3E3E3"/><stop offset=".914" stop-color="#E2E2E2"/><stop offset=".922" stop-color="#E1E1E1"/><stop offset=".93" stop-color="#E1E1E1"/><stop offset=".938" stop-color="#E0E0E0"/><stop offset=".945" stop-color="#E0E0E0"/><stop offset=".953" stop-color="#DFDFDF"/><stop offset=".961" stop-color="#DFDFDF"/><stop offset=".969" stop-color="#DEDEDE"/><stop offset=".977" stop-color="#DDD"/><stop offset=".984" stop-color="#DDD"/><stop offset=".992" stop-color="#DCDCDC"/><stop offset=".996" stop-color="#DCDCDC"/><stop offset="1" stop-color="#DBDBDB"/></linearGradient></defs><g clip-path="url(#a)"><g clip-path="url(#b)"><path fill="url(#c)" d="M.488 0v47.02h47.024V0Zm0 0"/></g></g><g clip-path="url(#d)"><path fill="#fff" d="M14.281 39.922a.08.08 0 0 1 .024.11.08.08 0 0 1-.07.034.1.1 0 0 1-.04-.007.08.08 0 0 1-.039-.098.09.09 0 0 1 .102-.05zm-1.18-.68a.074.074 0 0 0 0 .113q.006.001.012.008a.1.1 0 0 0 .051.016q.041-.001.066-.031c.024-.04.02-.082-.015-.106-.035-.031-.086-.031-.113 0m2.282 1.285a.085.085 0 0 0-.102.051.08.08 0 0 0 .04.098c.011.008.023.008.038.008q.043 0 .067-.036c.023-.039.015-.086-.024-.109q-.006-.006-.02-.012M12.07 38.48a.074.074 0 0 0 0 .114l.012.011q.023.014.05.016.043-.001.067-.031c.024-.04.02-.086-.015-.11a.08.08 0 0 0-.114 0m-.965-.835a.08.08 0 0 0-.023.109q.012.018.023.023a.1.1 0 0 0 .047.012.08.08 0 0 0 .067-.035c.023-.031.015-.078-.012-.106-.031-.023-.07-.027-.102-.003m7.754 4.32a.08.08 0 0 0 .059.097l.039-.156a.08.08 0 0 0-.098.059m-1.222-.38a.08.08 0 0 0 .058.099l.04-.157a.08.08 0 0 0-.098.059m-1.082-.515a.085.085 0 0 0-.102.028c-.023.039-.015.09.024.113a.03.03 0 0 0 .02.008c.007.004.019.004.026.004a.08.08 0 0 0 .075-.055.084.084 0 0 0-.043-.098M6.09 16.715c.008.004.02.004.027.004.031 0 .063-.02.07-.051.02-.04.004-.09-.035-.105a.08.08 0 0 0-.105.035l-.008.011a.083.083 0 0 0 .05.106m4.082 20.047c-.031.035-.031.086 0 .113l.004.004a.075.075 0 0 0 .113-.004c.031-.031.027-.082 0-.113a.094.094 0 0 0-.117 0m26.66-27.395a.1.1 0 0 0 .043-.012.08.08 0 0 0 .023-.109.1.1 0 0 0-.023-.023c-.04-.024-.086-.016-.11.023-.023.031-.015.078.012.106a.1.1 0 0 0 .055.015M6.688 31.531a.08.08 0 0 0-.11-.023c-.035.023-.047.066-.027.101a.08.08 0 0 0 .07.047c.008 0 .02-.004.027-.004a.09.09 0 0 0 .051-.101zm-1.004-2.418c-.043.008-.07.055-.059.098 0 0 .004.004.004.008a.08.08 0 0 0 .074.054l.024-.003a.08.08 0 0 0 .054-.098.08.08 0 0 0-.097-.059m.503 1.242a.08.08 0 0 0-.109-.023c-.035.023-.047.066-.027.098.011.03.039.047.074.047h.023a.09.09 0 0 0 .051-.106c-.004-.004-.008-.012-.011-.016m2.446 4.454a.08.08 0 0 0-.113 0c-.028.03-.032.078-.004.105a.075.075 0 0 0 .109.02.08.08 0 0 0 .023-.11.03.03 0 0 1-.015-.015M7.176 32.64a.077.077 0 0 0-.051.101c0 .008.004.012.008.02a.08.08 0 0 0 .066.035.1.1 0 0 0 .047-.012.08.08 0 0 0 .024-.105c-.016-.04-.055-.055-.094-.04m2.242 3.164c-.035-.024-.09-.016-.113.023a.08.08 0 0 0 .008.098.1.1 0 0 0 .062.027.1.1 0 0 0 .043-.012.083.083 0 0 0 .023-.113zm-1.59-2.067a.077.077 0 0 0-.05.102.03.03 0 0 0 .007.02.08.08 0 0 0 .067.035.1.1 0 0 0 .046-.012.08.08 0 0 0 .024-.106.07.07 0 0 0-.094-.039m24.805 6.778a.08.08 0 0 0-.04.097.08.08 0 0 0 .075.055c.008 0 .016-.004.023-.004l.024-.012a.076.076 0 0 0 .02-.109.076.076 0 0 0-.102-.027m-3.555 1.379a.08.08 0 0 0-.058.097c.011.035.043.063.078.063q.006.001.02-.004h.007c.04-.016.063-.059.05-.098-.01-.047-.054-.066-.097-.058m12.219-26.43c.016.02.039.035.066.035a.07.07 0 0 0 .043-.016.07.07 0 0 0 .028-.097.074.074 0 0 0-.098-.043c-.04.011-.063.058-.05.101zM27.84 42.19a.08.08 0 0 0-.067.082.08.08 0 0 0 .082.079c.008 0 .02 0 .028-.004.039-.012.062-.059.05-.102a.085.085 0 0 0-.093-.055M5.715 17.766a.08.08 0 0 0-.098.058l.156.04a.08.08 0 0 0-.058-.098m20.86 24.64a.08.08 0 0 0-.06.098c.008.039.04.062.079.062h.008a.077.077 0 0 0 .07-.078c.004-.054-.05-.093-.098-.082m4.913-1.355-.02.011c-.038.024-.05.075-.023.11q.025.035.067.035c.011 0 .02 0 .031-.008a.075.075 0 0 0 .043-.097.08.08 0 0 0-.098-.051m-1.187.465c-.043.007-.07.054-.059.097.008.035.04.059.078.059h.016q.007-.002.008-.004c.043-.012.062-.055.05-.098-.007-.043-.05-.066-.093-.054m-10.09.687c-.05-.016-.11.024-.11.074a.08.08 0 0 0 .067.082h.016a.08.08 0 0 0 .074-.054.08.08 0 0 0-.047-.102m22.848-19.367a.08.08 0 0 0 .082.078.08.08 0 0 0 .078-.078v-.004a.08.08 0 0 0-.078-.078.08.08 0 0 0-.082.082M22.727 42.539c-.04-.004-.079.02-.086.059a.08.08 0 0 0 .058.097c.004.004.016.004.02.004.047 0 .082-.039.082-.082s-.035-.074-.074-.078M37.75 10.258c.02 0 .043-.008.055-.024a.074.074 0 0 0 0-.113.08.08 0 0 0-.114.113c.016.016.04.024.059.024M24.02 42.582a.08.08 0 0 0-.102.078.08.08 0 0 0 .082.082l.023-.004.02.004h.004a.08.08 0 0 0 .078-.082c-.004-.055-.059-.094-.105-.078m16.113-29.32c.004 0 .015-.004.023-.004.04-.012.063-.059.051-.102l-.012-.02c-.023-.038-.07-.046-.11-.023a.08.08 0 0 0-.026.106.08.08 0 0 0 .074.043M21.453 42.41a.08.08 0 0 0-.086.063.08.08 0 0 0 .059.097h.02a.08.08 0 0 0 .081-.078.08.08 0 0 0-.074-.082m17.895-30.226a.08.08 0 0 0 .113 0 .08.08 0 0 0 .008-.106.084.084 0 0 0-.11-.015.08.08 0 0 0-.023.109zM25.3 42.535a.08.08 0 0 0-.059.098.08.08 0 0 0 .078.062h.008a.08.08 0 0 0 .074-.082c0-.05-.05-.09-.101-.078m13.262-31.344a.1.1 0 0 0 .046.012q.043 0 .067-.035a.08.08 0 0 0-.008-.098.08.08 0 0 0-.105-.011.08.08 0 0 0-.024.109zm2.222 3.168q.012.001.024-.004a.077.077 0 0 0 .05-.101.03.03 0 0 0-.007-.02c-.024-.039-.075-.046-.114-.023a.08.08 0 0 0-.023.105c.012.028.039.043.07.043m-4.933-5.816c.02 0 .043-.008.058-.023a.08.08 0 0 0 0-.114l-.015-.011a.09.09 0 0 0-.118.02c-.023.034-.02.081.02.105.012.015.035.023.055.023M22.695 4.48l.02-.003a.08.08 0 0 0 .058-.098c-.007-.04-.043-.063-.085-.059a.077.077 0 0 0-.07.078c0 .043.034.082.077.082m-6.191 1.477.023-.004q.013-.004.02-.008a.083.083 0 0 0 .023-.113c-.023-.035-.066-.047-.097-.027a.08.08 0 0 0-.047.097.08.08 0 0 0 .078.055m7.473-1.523a.08.08 0 0 0 .082-.079.08.08 0 0 0-.082-.082.08.08 0 0 0-.082.082c0 .043.039.079.082.079m-3.817.386q.01.001.02-.004c.035-.003.066-.039.066-.078 0-.05-.058-.09-.11-.074-.038.012-.062.059-.05.102a.08.08 0 0 0 .074.054M5.367 27.875a.08.08 0 0 0-.082.082c0 .008 0 .02.004.027a.08.08 0 0 0 .074.055l.024-.004a.08.08 0 0 0 .054-.094.073.073 0 0 0-.074-.066m19.88-23.398h.007a.08.08 0 0 0 .078-.063.08.08 0 0 0-.059-.098c-.046-.011-.101.028-.101.079.004.043.035.078.074.082m-6.329.64q.007.001.02-.004a.08.08 0 1 0-.04-.156q-.006.002-.007.004c-.043.012-.063.055-.051.098a.08.08 0 0 0 .078.058m2.504-.512h.023a.084.084 0 0 0 .059-.097.085.085 0 0 0-.09-.063.08.08 0 0 0-.07.082c0 .043.035.078.078.078m10 1.329q.018.009.035.007a.08.08 0 0 0 .066-.035.086.086 0 0 0-.023-.113l-.023-.008a.083.083 0 0 0-.102.05.08.08 0 0 0 .047.099m2.293 1.156c.008.004.02.004.027.004a.078.078 0 0 0 .035-.149c-.035-.023-.082-.011-.105.028a.08.08 0 0 0 .023.109.03.03 0 0 0 .02.008m-3.38-1.668a.08.08 0 0 0-.054-.098l-.043.156h.02c.035 0 .07-.023.078-.058m2.259 1.055.023.003c.035 0 .063-.02.074-.054.016-.04-.004-.078-.035-.098-.039-.02-.086-.008-.105.027-.028.04-.016.086.02.114q.01.001.023.008M26.52 4.602h.011a.075.075 0 0 0 .074-.059c.012-.047-.011-.09-.058-.102-.047-.007-.102.028-.102.079 0 .043.035.078.075.082m8.3 3.183a.1.1 0 0 0 .059-.023.08.08 0 0 0 0-.114c-.004-.003-.012-.007-.016-.011-.035-.024-.09-.02-.117.015-.023.04-.02.082.02.11.011.015.035.023.054.023M27.766 4.81l.023.003a.08.08 0 0 0 .082-.082.084.084 0 0 0-.066-.082c-.04-.003-.078.016-.09.055a.083.083 0 0 0 .05.106m1.347.234a.08.08 0 0 0-.058-.098l-.04.157a.04.04 0 0 0 .02.003c.04 0 .07-.023.078-.062m-11.418.453h.02a.08.08 0 0 0 .058-.098.08.08 0 0 0-.097-.058h-.008a.076.076 0 0 0-.05.098.09.09 0 0 0 .077.058M4.922 25.356a.08.08 0 0 0-.059.085c.004.043.035.075.078.075a.08.08 0 0 0 .082-.078l-.003-.024a.08.08 0 0 0-.098-.059M6.59 15.53c.008 0 .02.004.027.004.031 0 .059-.02.07-.047.02-.035.008-.078-.027-.101a.08.08 0 0 0-.11.023l-.01.02c-.017.043.01.086.05.101m-1.735 7.426a.08.08 0 0 0 .082-.078.08.08 0 0 0-.082-.082.08.08 0 0 0-.078.082c0 .043.035.078.078.078m.086-1.273c.04 0 .075-.036.079-.075a.08.08 0 0 0-.063-.086.08.08 0 0 0-.098.059v.02a.08.08 0 0 0 .082.082m-.003 2.472a.08.08 0 0 0-.083-.078.08.08 0 0 0-.078.078v.004c0 .043.035.078.078.078a.08.08 0 0 0 .082-.082m.398-5 .023.004c.036 0 .067-.02.075-.055.003-.007.003-.02.003-.027 0-.043-.035-.082-.078-.082a.09.09 0 0 0-.082.067c-.004.042.02.082.059.093m-.227 7.465a.08.08 0 0 0-.078.082c0 .008 0 .02.004.027a.08.08 0 0 0 .074.055l.024-.004a.085.085 0 0 0 .054-.093c-.003-.04-.035-.067-.078-.067m-.027-6.21c.008.003.02.003.023.003a.08.08 0 0 0 .079-.055l.003-.027a.083.083 0 0 0-.082-.082c-.039 0-.07.031-.078.066a.083.083 0 0 0 .055.094m5.14-10.13a.07.07 0 0 0 .06-.027.08.08 0 0 0-.114-.113v.004a.08.08 0 0 0 .055.136m5.122-3.785q.02-.001.043-.008a.09.09 0 0 0 .039-.097.09.09 0 0 0-.102-.051l-.023.012a.077.077 0 0 0-.02.109c.012.023.04.035.063.035m-2.196 1.305a.1.1 0 0 0 .043-.012l.016-.012a.08.08 0 0 0 0-.113c-.031-.027-.078-.031-.105-.008-.036.024-.043.074-.02.11q.025.035.066.035m-1.027.761a.1.1 0 0 0 .043-.011l.016-.012a.08.08 0 0 0 0-.113c-.032-.028-.075-.031-.106-.004-.035.023-.043.07-.02.11.012.019.04.03.067.03m2.106-1.449a.1.1 0 0 0 .039-.011c.035-.016.05-.059.039-.094a.083.083 0 0 0-.106-.051q-.006.001-.02.008a.085.085 0 0 0-.023.113.08.08 0 0 0 .07.035m-6.422 6.164a.1.1 0 0 0 .043.012q.041 0 .066-.035a.03.03 0 0 0 .008-.02c.016-.043-.008-.086-.05-.101-.036-.016-.075.004-.095.039a.077.077 0 0 0 .028.105m-.657 1.102a.1.1 0 0 0 .047.012.08.08 0 0 0 .067-.036q.007-.012.008-.02c.011-.042-.008-.089-.051-.1a.076.076 0 0 0-.098.035c-.016.039-.008.085.027.109m1.422-2.137a.07.07 0 0 0 .059-.031c.031-.035.031-.086 0-.113a.08.08 0 0 0-.113 0l-.012.011c-.024.04-.02.094.016.118.02.007.035.015.05.015m.797-1.012a.08.08 0 0 0 .059-.03.08.08 0 0 0 .008-.098.077.077 0 0 0-.11-.02.04.04 0 0 0-.023.02.08.08 0 0 0 .023.113c.008.012.028.015.043.015m1.778-1.84a.07.07 0 0 0 .043-.015c.011-.004.019-.016.023-.02.023-.039.016-.09-.024-.113-.027-.02-.07-.015-.097.008-.031.027-.035.07-.012.105.012.024.04.036.067.036m30.77 20.887c-.044-.011-.087.004-.102.047-.016.043 0 .09.039.11q.017.006.035.007c.031 0 .058-.02.07-.046l.008-.012c.012-.04-.008-.09-.05-.106m-1.06 2.34c-.035-.027-.085-.015-.109.024l-.012.02a.09.09 0 0 0 .051.1q.017.006.028.005a.08.08 0 0 0 .07-.043.08.08 0 0 0-.028-.106m.56-1.152a.075.075 0 0 0-.099.043.085.085 0 0 0 .028.101.1.1 0 0 0 .047.012q.041 0 .066-.035l.008-.023a.075.075 0 0 0-.05-.098m.452-14.79a.1.1 0 0 0 .035-.007c.035-.02.055-.066.035-.105-.015-.04-.054-.055-.097-.04-.04.012-.063.067-.047.106a.08.08 0 0 0 .074.047m.36 12.454a.083.083 0 0 0 .058.101h.02c.035 0 .07-.023.078-.058Zm.398-10.012a.08.08 0 0 0 .082-.082c0-.008-.004-.02-.004-.027a.085.085 0 0 0-.101-.051.085.085 0 0 0-.055.094.08.08 0 0 0 .078.066m-.34-1.234h.02a.08.08 0 0 0 .058-.098q-.002-.007-.004-.008a.073.073 0 0 0-.097-.05.08.08 0 0 0-.055.097.08.08 0 0 0 .078.059M33.75 39.898a.08.08 0 0 0-.04.098.08.08 0 0 0 .08.055q.01.001.023-.004a.03.03 0 0 0 .019-.008.08.08 0 0 0 .023-.113.08.08 0 0 0-.105-.028m4.832-4.105c-.023.027-.027.07-.008.098a.1.1 0 0 0 .067.039.1.1 0 0 0 .047-.016c.007-.004.015-.016.023-.023a.08.08 0 0 0-.023-.11c-.032-.023-.079-.015-.106.012m-.852.95a.08.08 0 0 0 .055.136c.02 0 .043-.008.059-.024.031-.035.031-.082 0-.113a.08.08 0 0 0-.114 0m-.906.878-.023.024a.08.08 0 0 0 .023.113.1.1 0 0 0 .047.012.1.1 0 0 0 .055-.02c.027-.027.035-.074.011-.105a.086.086 0 0 0-.113-.024m-2.004 1.59-.011.012a.074.074 0 0 0 0 .113.08.08 0 0 0 .054.023q.028 0 .051-.015c.031-.028.043-.074.02-.11a.08.08 0 0 0-.114-.023m4.559-4.426a.08.08 0 0 0 .113.113l.012-.011c.023-.04.02-.094-.02-.117-.035-.024-.082-.02-.105.015m.824-1.066a.08.08 0 0 0-.11.023l-.011.02a.085.085 0 0 0 .05.101q.015.005.028.004a.08.08 0 0 0 .07-.043.077.077 0 0 0-.027-.105m-4.351 4.73-.016.012a.08.08 0 0 0 .059.137.08.08 0 0 0 .066-.125.08.08 0 0 0-.11-.024m7.066-11.867a.08.08 0 0 0-.102.05q-.005.015-.004.028a.08.08 0 0 0 .083.078.08.08 0 0 0 .078-.062c.004-.043-.016-.082-.055-.094m-.035-6.21a.08.08 0 0 0 .078-.083c0-.008 0-.02-.004-.027-.012-.04-.059-.063-.102-.051-.039.016-.062.055-.05.094.004.039.035.066.078.066m.176 4.937a.077.077 0 0 0-.079.074c-.003.039.02.078.06.086a.04.04 0 0 0 .019.004c.035 0 .07-.028.078-.063v-.02a.08.08 0 0 0-.078-.081m-.008-3.668c.008 0 .011 0 .02-.004.038-.008.062-.047.058-.086-.004-.043-.035-.074-.078-.074a.08.08 0 0 0-.082.082l.004.02c.011.034.043.062.078.062m.09 2.39a.083.083 0 0 0-.082.082.08.08 0 0 0 .082.082.08.08 0 0 0 .078-.082c0-.043-.035-.082-.078-.082m-.473 3.805c-.043-.012-.09.012-.102.05q-.005.015-.004.028a.08.08 0 0 0 .079.082.08.08 0 0 0 .082-.066.095.095 0 0 0-.055-.094M7.215 18.203c.015-.055-.012-.11-.067-.125a.1.1 0 0 0-.125.063c-.02.054.012.109.067.129l.027.003a.11.11 0 0 0 .098-.07m-.586 8.707a.1.1 0 0 0-.078.121.1.1 0 0 0 .097.082l.02-.004a.1.1 0 0 0 .078-.117.103.103 0 0 0-.117-.082m.172-7.605a.104.104 0 0 0-.121.074.103.103 0 0 0 .074.121c.008.004.02.004.027.004a.1.1 0 0 0 .098-.078c.012-.051-.024-.106-.078-.121m.496 10.07a.1.1 0 0 0-.063.129c.02.039.055.066.094.066a.1.1 0 0 0 .035-.008.095.095 0 0 0 .063-.125.1.1 0 0 0-.13-.062m-.379-1.223a.1.1 0 0 0-.07.125c.011.047.05.075.097.075.004 0 .016 0 .024-.004a.1.1 0 0 0 .07-.125c-.012-.051-.07-.082-.121-.07m.668-11.277c-.05-.023-.11.004-.133.055-.02.05.008.113.059.129a.1.1 0 0 0 .035.007c.043 0 .082-.023.094-.062a.1.1 0 0 0-.055-.129m.726 14.84a.097.097 0 0 0-.039.133.1.1 0 0 0 .09.054q.024-.002.047-.015a.1.1 0 0 0 .043-.133.106.106 0 0 0-.14-.04m-.468-.969a.1.1 0 0 0 .05-.133.1.1 0 0 0-.132-.05.1.1 0 0 0-.051.132c.016.04.05.059.09.059a.1.1 0 0 0 .043-.008M31.938 7.801a.2.2 0 0 0 .046.008c.036 0 .07-.02.09-.055a.1.1 0 0 0-.047-.133.095.095 0 0 0-.132.043.105.105 0 0 0 .043.137m7.46 6.785a.09.09 0 0 0-.132-.035.094.094 0 0 0-.04.133q.032.051.087.05a.1.1 0 0 0 .05-.015.09.09 0 0 0 .035-.133M21.465 40.922a.1.1 0 0 0-.113.086.1.1 0 0 0 .085.113h.016a.1.1 0 0 0 .098-.086.1.1 0 0 0-.086-.113m17.601-8.129a.097.097 0 0 0-.136.031.097.097 0 0 0 .03.137.1.1 0 0 0 .052.016c.035 0 .07-.016.09-.047h-.004a.097.097 0 0 0-.032-.137m-16.34 8.266a.1.1 0 0 0-.105.093.097.097 0 0 0 .09.106c.004 0 .008.004.008.004.05 0 .097-.043.101-.094a.1.1 0 0 0-.093-.11M8.716 14.582a.1.1 0 0 0-.137.035.1.1 0 0 0 .04.137.1.1 0 0 0 .046.016c.035 0 .066-.02.086-.051a.1.1 0 0 0-.035-.137m29.5 19.293c-.031.047-.024.11.023.14.016.012.04.02.059.02a.1.1 0 0 0 .082-.043v.004a.105.105 0 0 0-.024-.144.104.104 0 0 0-.14.023M6.43 25.648a.1.1 0 0 0-.086.114c.004.05.047.086.097.086h.016c.055-.004.09-.059.086-.114a.105.105 0 0 0-.113-.086m-.004-1.18a.1.1 0 0 0-.106-.093.1.1 0 0 0-.093.105.1.1 0 0 0 .101.094h.004c.055 0 .098-.05.094-.105m2.523 8.352a.103.103 0 0 0-.035.14q.031.048.086.048a.1.1 0 0 0 .055-.016c.047-.027.058-.09.03-.137-.026-.05-.089-.062-.136-.035m8.832 7.153a.1.1 0 0 0-.129.062c-.02.05.008.11.059.13a.1.1 0 0 0 .039.003c.04 0 .078-.023.09-.063a.104.104 0 0 0-.059-.132m18.938-4.16a.104.104 0 0 0-.145 0 .1.1 0 0 0 0 .14q.032.03.074.031a.1.1 0 0 0 .07-.03c.04-.04.04-.106 0-.142m-21.242 3.093a.1.1 0 0 0-.137.04c-.027.046-.008.109.039.136.016.004.031.012.05.012.036 0 .071-.02.087-.051a.1.1 0 0 0-.04-.137M33.05 8.418a.1.1 0 0 0 .05.016c.036 0 .067-.02.087-.051.027-.047.015-.11-.036-.137-.047-.027-.109-.016-.136.035-.028.043-.012.106.035.137M16.609 39.48c-.05-.023-.109 0-.136.051-.02.047 0 .11.05.133a.1.1 0 0 0 .043.012c.036 0 .07-.024.09-.059a.1.1 0 0 0-.047-.137m2.375.899a.1.1 0 0 0-.125.066.1.1 0 0 0 .07.125v.004c.009 0 .02.004.028.004.043 0 .082-.031.098-.074a.1.1 0 0 0-.07-.125m18.063-28.726a.1.1 0 0 0 .07-.024.104.104 0 0 0 .004-.145.1.1 0 0 0-.14-.004c-.04.04-.044.102-.004.141.02.024.043.031.07.031M9.8 33.902a.105.105 0 0 0-.145-.02.1.1 0 0 0-.02.137c.02.027.052.042.083.042.02 0 .043-.007.058-.019a.104.104 0 0 0 .024-.14m.644.984c-.039.039-.047.101-.011.14q.035.041.078.04a.08.08 0 0 0 .062-.028.096.096 0 0 0 .012-.14.11.11 0 0 0-.14-.012M25.88 6.007c.004 0 .008.005.012.005.047 0 .09-.04.097-.094.008-.055-.035-.102-.09-.11-.054-.003-.105.036-.109.09-.004.055.035.106.09.11M14.387 38.25c-.047-.031-.11-.02-.137.027a.1.1 0 0 0 .027.141q.028.014.055.016a.1.1 0 0 0 .086-.047.1.1 0 0 0-.031-.137M11.3 35.836a.104.104 0 0 0 0 .144c.02.016.047.028.07.028a.1.1 0 0 0 .07-.028.104.104 0 0 0 0-.144c-.035-.04-.097-.04-.14 0m28.398-4.156a.1.1 0 0 0-.136.039.1.1 0 0 0 .039.136.1.1 0 0 0 .046.012.1.1 0 0 0 .09-.055.094.094 0 0 0-.039-.132m-26.351 5.836a.095.095 0 0 0-.137.02.1.1 0 0 0 .016.14q.029.021.062.02a.12.12 0 0 0 .082-.04.1.1 0 0 0-.023-.14m-1.121-.797a.1.1 0 0 0 .007.144.1.1 0 0 0 .067.024.1.1 0 0 0 .074-.032.1.1 0 0 0-.008-.144.103.103 0 0 0-.14.008m25.203-1.844a.1.1 0 0 0 .078.164.1.1 0 0 0 .074-.035h.004a.1.1 0 0 0-.016-.14c-.039-.04-.105-.032-.14.011m-17.215 5.82a.1.1 0 0 0-.117.078.1.1 0 0 0 .074.118l.023.004a.1.1 0 0 0 .098-.079.1.1 0 0 0-.078-.12m9.379-33.879a.05.05 0 0 0 .031.008.1.1 0 0 0 .098-.07.1.1 0 0 0-.067-.125.1.1 0 0 0-.125.062c-.015.055.012.11.063.125m6.558 3.926a.1.1 0 0 0 .075-.027.104.104 0 0 0-.008-.145.1.1 0 0 0-.14.004c-.04.04-.04.102.003.14a.1.1 0 0 0 .07.028m-19.02-3.449q.023-.001.04-.008a.105.105 0 0 0 .055-.133.105.105 0 0 0-.133-.054.105.105 0 0 0-.055.132c.02.04.055.063.094.063M20.801 6.2h.015c.055-.011.094-.062.082-.117A.104.104 0 0 0 20.781 6a.1.1 0 0 0-.082.117.1.1 0 0 0 .102.082m20.77 19.406a.106.106 0 0 0-.114.086.104.104 0 0 0 .09.114l.012.004a.1.1 0 0 0 .097-.09.1.1 0 0 0-.086-.114M6.3 23.301a.1.1 0 0 0 .101-.098.095.095 0 0 0-.097-.101.1.1 0 0 0-.102.097c0 .055.043.098.098.102M18.328 6.84l.031-.004a.1.1 0 0 0 .063-.129.096.096 0 0 0-.125-.059.093.093 0 0 0-.063.125c.012.04.051.067.094.067m1.223-.367q.01.001.027-.004c.05-.016.086-.07.07-.121a.106.106 0 0 0-.125-.075.11.11 0 0 0-.07.125.104.104 0 0 0 .098.075m21.804 20.593c.047 0 .09-.03.098-.082a.1.1 0 0 0-.078-.117c-.055-.012-.105.028-.117.082v-.004a.097.097 0 0 0 .078.117.04.04 0 0 0 .02.004m.32-2.734c-.054-.004-.105.04-.105.094a.096.096 0 0 0 .094.105h.008a.1.1 0 0 0 .098-.093.1.1 0 0 0-.094-.106M27.138 6.192h.015c.047 0 .094-.032.098-.079a.097.097 0 0 0-.078-.117.097.097 0 0 0-.117.078c-.012.051.027.106.082.117m-2.528-.27h.004a.103.103 0 0 0 .102-.098.1.1 0 0 0-.098-.101.094.094 0 0 0-.101.093.096.096 0 0 0 .093.106m9.508 3.187a.1.1 0 0 0 .059.016.12.12 0 0 0 .082-.04c.031-.05.02-.108-.028-.14a.104.104 0 0 0-.14.024.1.1 0 0 0 .027.14M28.38 6.461l.023.004a.1.1 0 0 0 .098-.078.105.105 0 0 0-.07-.121.11.11 0 0 0-.125.07c-.016.055.02.11.074.125m-5.043-.54h.004c.058-.003.101-.046.098-.1a.103.103 0 0 0-.102-.098c-.059.004-.102.05-.098.105 0 .05.047.094.098.094m18.352 17.134a.103.103 0 0 0-.098.101.103.103 0 0 0 .101.098h.004a.1.1 0 0 0 .098-.102.104.104 0 0 0-.105-.097M35.129 9.88q.03.024.063.023a.1.1 0 0 0 .079-.039.1.1 0 0 0-.016-.14.092.092 0 0 0-.14.015.1.1 0 0 0 .015.14M22.064 6.016h.011a.104.104 0 0 0 .09-.114c-.004-.054-.059-.093-.113-.086-.055.004-.094.055-.09.11.008.05.05.09.102.09m19.242 13.32c-.016-.05-.07-.086-.121-.07-.055.011-.09.066-.075.117a.1.1 0 0 0 .098.078q.012.001.023-.004a.103.103 0 0 0 .075-.121M8.02 15.886a.1.1 0 0 0 .046.012c.036 0 .07-.023.09-.058a.104.104 0 0 0-.047-.137.103.103 0 0 0-.136.047.105.105 0 0 0 .047.137m32.226 14.641a.1.1 0 0 0-.133.051c-.023.047.004.11.051.129a.1.1 0 0 0 .04.008c.038 0 .077-.02.093-.059.027-.05 0-.11-.05-.129M9.344 13.684a.1.1 0 0 0 .082-.043.104.104 0 0 0-.028-.141c-.046-.027-.109-.02-.14.027a.1.1 0 0 0 .027.141c.016.012.04.016.059.016m1.578-2.004a.1.1 0 0 0 .074-.032H11a.103.103 0 0 0-.008-.14c-.039-.04-.105-.035-.144.004a.103.103 0 0 0 .007.14q.03.029.067.028m-.824.976a.1.1 0 0 0 .078-.039.1.1 0 0 0-.016-.14.1.1 0 0 0-.14.015.1.1 0 0 0 .015.14q.031.024.063.024m-3.63 9.274q0 .006 0 0m.044-1.176a.04.04 0 0 0 .02.004.1.1 0 0 0 .097-.082v-.004a.1.1 0 0 0-.082-.113.1.1 0 0 0-.113.082.093.093 0 0 0 .078.113M30.785 7.266a.1.1 0 0 0 .035.007c.04 0 .078-.023.094-.058.02-.05-.004-.113-.055-.133a.105.105 0 0 0-.132.055c-.016.05.007.11.058.129m10.047 10.77a.103.103 0 0 0-.066.124c.015.043.054.07.097.07.008 0 .02 0 .028-.003a.104.104 0 0 0 .066-.13c-.016-.05-.07-.077-.125-.062m.258 10.077a.1.1 0 0 0-.125.07.1.1 0 0 0 .07.122q.014.005.028.004a.1.1 0 0 0 .097-.07c.012-.055-.015-.11-.07-.126M13.793 9.148a.1.1 0 0 0 .059-.015.11.11 0 0 0 .023-.145.1.1 0 0 0-.14-.02v-.003a.104.104 0 0 0-.024.14.1.1 0 0 0 .082.043m1.066-.699c.02 0 .04-.008.051-.015a.1.1 0 0 0 .035-.137.097.097 0 0 0-.136-.031v-.004a.1.1 0 0 0-.036.136c.02.036.055.051.086.051m1.118-.62a.1.1 0 0 0 .046-.013.097.097 0 0 0 .043-.132.095.095 0 0 0-.132-.043.103.103 0 0 0-.047.136q.03.05.09.051m-3.2 2.093q.031 0 .063-.024a.1.1 0 0 0 .015-.14c-.035-.043-.101-.051-.14-.016-.043.04-.05.102-.016.145q.03.035.078.035m27.618 6.914a.096.096 0 0 0-.055.129c.012.039.05.066.09.066a.1.1 0 0 0 .039-.008.105.105 0 0 0 .054-.132.1.1 0 0 0-.128-.055M11.82 10.77a.12.12 0 0 0 .07-.028.106.106 0 0 0 .005-.144c-.04-.04-.102-.043-.141-.004-.043.039-.043.101-.004.144.016.02.043.032.07.032m28.953 18.69a.096.096 0 0 0-.058-.124.1.1 0 0 0-.13.059.1.1 0 0 0 .06.128.1.1 0 0 0 .035.004.1.1 0 0 0 .093-.066M6.36 22.024h.008c.051 0 .098-.039.102-.09.004-.058-.035-.105-.09-.109s-.102.04-.11.094a.1.1 0 0 0 .09.105m31.438-9.433c.02.023.05.035.078.035a.1.1 0 0 0 .063-.02.1.1 0 0 0 .015-.14.1.1 0 0 0-.14-.02.104.104 0 0 0-.016.145m-7.473 27.558c.051-.023.078-.082.059-.132s-.078-.075-.13-.059a.104.104 0 0 0-.058.133.1.1 0 0 0 .094.062q.018.001.035-.004m-5.015.907c-.055.004-.094.05-.09.11.004.05.047.089.101.089h.004a.1.1 0 0 0 .094-.11.103.103 0 0 0-.11-.09m2.511-.367c-.054.011-.086.066-.078.12a.1.1 0 0 0 .102.079c.004 0 .011-.004.02-.004a.1.1 0 0 0 .077-.121.1.1 0 0 0-.12-.075m5.957-2.426a.1.1 0 0 0-.14-.032c-.047.036-.059.094-.028.141a.1.1 0 0 0 .137.027.1.1 0 0 0 .031-.136m2.02-1.563a.1.1 0 0 0-.145-.008.098.098 0 0 0 .066.172c.028 0 .052-.004.071-.023.04-.04.043-.102.008-.14m-3.149 2.364a.1.1 0 0 0 .04-.137.106.106 0 0 0-.137-.04.102.102 0 0 0 .05.192.1.1 0 0 0 .047-.016m7.266-23.2c.016 0 .027-.004.043-.008a.104.104 0 0 0 .047-.136c-.027-.051-.086-.074-.137-.047-.047.023-.066.082-.047.133.02.039.055.058.094.058m-5.102 21.653a.097.097 0 0 0-.14-.02c-.043.031-.05.094-.016.14.016.028.047.04.078.04a.1.1 0 0 0 .063-.02.1.1 0 0 0 .016-.14m-8.242 3.402a.1.1 0 0 0-.082.113c.004.047.051.082.102.082h.012a.1.1 0 0 0 .085-.113.1.1 0 0 0-.117-.082m14.79-20.29a.1.1 0 0 0 .1.087q.01.001.017-.004a.1.1 0 0 0 .082-.113.1.1 0 0 0-.114-.082.1.1 0 0 0-.086.113M24.04 41.103q-.015 0-.02.003-.013-.004-.02-.003a.104.104 0 0 0-.105.101c0 .055.046.102.105.102q.007.001.02-.004c.003.004.015.004.02.004a.1.1 0 0 0 .1-.102.1.1 0 0 0-.1-.101m7.468-1.457a.096.096 0 0 0 .047-.13.1.1 0 0 0-.133-.05.103.103 0 0 0-.05.133.1.1 0 0 0 .093.058.1.1 0 0 0 .043-.011M41.52 21.89c.007.05.05.09.101.09h.008a.096.096 0 0 0 .09-.11c-.004-.055-.055-.094-.11-.09-.054.004-.093.051-.09.11M29.105 40.559a.096.096 0 0 0 .07-.121c-.019-.055-.073-.086-.124-.07-.055.015-.082.07-.07.124.015.043.054.07.097.07q.017 0 .027-.003m9.47-27.086a.1.1 0 0 0-.024.14c.015.024.05.043.082.043q.03-.001.058-.02c.043-.027.055-.09.028-.136a.106.106 0 0 0-.145-.027m1.21 6.336q.017.001.028-.004a.126.126 0 0 0 .093-.145h-.004a.12.12 0 0 0-.144-.09.123.123 0 0 0-.09.145.13.13 0 0 0 .117.094M7.81 24.91h.007a.12.12 0 0 0 .11-.125.12.12 0 0 0-.13-.113.12.12 0 0 0-.109.129.12.12 0 0 0 .122.11m.066-1.394a.12.12 0 0 0-.117-.121.12.12 0 0 0-.121.12c0 .067.05.122.12.122a.12.12 0 0 0 .118-.121m23.586 14.558a.126.126 0 0 0 .05-.164.12.12 0 0 0-.163-.05.12.12 0 0 0-.051.16c.02.042.062.066.105.066q.03 0 .059-.012m7.602-8.492c-.06-.027-.13.004-.157.066a.12.12 0 0 0 .067.157.2.2 0 0 0 .047.008.12.12 0 0 0 .113-.075.123.123 0 0 0-.07-.156m.374-11a.1.1 0 0 0 .04-.008.12.12 0 0 0 .078-.152.12.12 0 0 0-.153-.074.12.12 0 0 0-.078.152.12.12 0 0 0 .114.082M10.79 32.961c-.055.035-.066.113-.027.168a.12.12 0 0 0 .097.047.1.1 0 0 0 .07-.024c.055-.035.067-.113.028-.168a.115.115 0 0 0-.168-.023m28.633-4.352q.018.007.035.008c.05 0 .102-.035.117-.086.02-.062-.015-.129-.082-.152a.12.12 0 0 0-.148.082.12.12 0 0 0 .078.148M7.938 25.937a.123.123 0 0 0-.102.141.125.125 0 0 0 .121.102q.008.001.016-.004c.066-.008.109-.07.101-.137a.12.12 0 0 0-.136-.102m31.98-4.984a.115.115 0 0 0 .117.102h.02a.117.117 0 0 0 .101-.137.124.124 0 0 0-.136-.102c-.067.012-.114.075-.102.137m-1.379 9.793a.12.12 0 0 0-.16.055.12.12 0 0 0 .05.16q.031.012.055.012a.13.13 0 0 0 .11-.063.12.12 0 0 0-.055-.164m-25.18 5.035a.12.12 0 0 0 .012.168.12.12 0 0 0 .078.028c.035 0 .07-.016.094-.04a.123.123 0 0 0-.016-.171.12.12 0 0 0-.168.015m25.102-19.55q.03 0 .055-.012a.12.12 0 0 0 .05-.164.117.117 0 0 0-.16-.051.126.126 0 0 0-.054.164.13.13 0 0 0 .109.062M8.17 19.843c.009.004.02.004.024.004a.12.12 0 0 0 .117-.094.12.12 0 0 0-.085-.145c-.067-.015-.133.024-.145.09a.12.12 0 0 0 .09.145m30.825-2.457q.023-.001.047-.008a.117.117 0 0 0 .062-.156.116.116 0 0 0-.156-.067c-.058.028-.09.098-.062.157.02.046.062.074.11.074M35.59 34.883a.12.12 0 0 0-.168 0 .117.117 0 0 0 0 .172.12.12 0 0 0 .082.035.12.12 0 0 0 .086-.035.123.123 0 0 0 0-.172m-25.38-2.785c.06-.032.075-.106.04-.164a.12.12 0 0 0-.164-.04.12.12 0 0 0-.04.169.12.12 0 0 0 .165.035m26.849.859a.12.12 0 0 0 .027.168c.02.016.047.023.07.023.04 0 .074-.02.098-.05a.12.12 0 0 0-.027-.168.123.123 0 0 0-.168.027m-25.49 1.008a.12.12 0 0 0-.015.168h.004a.12.12 0 0 0 .168.016.12.12 0 0 0 .015-.169.12.12 0 0 0-.172-.015m-2.633-16.55a.2.2 0 0 0 .047.007.12.12 0 0 0 .114-.074.123.123 0 0 0-.067-.157.116.116 0 0 0-.156.067c-.027.058.004.129.063.156m.008 12.202c-.058.028-.09.098-.062.156a.11.11 0 0 0 .11.075.2.2 0 0 0 .046-.008.12.12 0 0 0 .066-.156.13.13 0 0 0-.16-.067M27.738 7.824c.012 0 .02.004.028.004a.12.12 0 0 0 .117-.094.12.12 0 0 0-.09-.144.123.123 0 0 0-.145.09.126.126 0 0 0 .09.144m-2.437 31.75a.123.123 0 0 0-.11.133.12.12 0 0 0 .118.11h.011a.12.12 0 0 0 .11-.13.12.12 0 0 0-.13-.113M8.32 27.281a.126.126 0 0 0-.145-.093.13.13 0 0 0-.094.148.12.12 0 0 0 .117.09q.016.001.031-.004a.116.116 0 0 0 .09-.14m.19 1.137a.127.127 0 0 0-.077.156.12.12 0 0 0 .113.078c.015 0 .023 0 .039-.004a.123.123 0 0 0 .078-.152.125.125 0 0 0-.152-.078m29.415 3.445a.125.125 0 0 0-.168.04.13.13 0 0 0 .043.167.1.1 0 0 0 .058.016.12.12 0 0 0 .106-.059.117.117 0 0 0-.04-.164M12.43 34.91a.12.12 0 0 0 0 .168.12.12 0 0 0 .086.035.12.12 0 0 0 .082-.035c.047-.05.047-.125 0-.168a.112.112 0 0 0-.168 0m-2.797-4.078a.12.12 0 0 0-.16-.055.12.12 0 0 0-.055.164c.02.04.066.067.11.067a.1.1 0 0 0 .054-.016.12.12 0 0 0 .05-.16M23.977 7.387a.12.12 0 0 0 .12-.121.12.12 0 0 0-.12-.121.12.12 0 0 0-.122.12c0 .067.055.122.122.122m3.82 31.793c-.063.011-.102.078-.086.144.012.055.062.09.117.09q.012.001.024-.004a.126.126 0 0 0 .093-.144.117.117 0 0 0-.148-.086M15.398 9.727q.037.058.102.058a.13.13 0 0 0 .063-.02.12.12 0 0 0 .039-.163.12.12 0 0 0-.168-.04c-.055.032-.07.11-.036.165m14.895 28.886a.12.12 0 0 0 .066-.156.12.12 0 0 0-.156-.066c-.062.027-.094.097-.066.156.02.05.062.074.113.074a.2.2 0 0 0 .043-.008m-17.79-26.46a.12.12 0 0 0 .087-.036.123.123 0 0 0 0-.172.123.123 0 0 0-.172 0 .123.123 0 0 0 0 .172.13.13 0 0 0 .086.035m10.2-4.716h.012a.125.125 0 0 0 .11-.132.124.124 0 0 0-.13-.11.12.12 0 0 0-.11.13.117.117 0 0 0 .118.112m2.54-.003h.007a.123.123 0 0 0 .121-.114.116.116 0 0 0-.11-.129.12.12 0 0 0-.128.114.116.116 0 0 0 .11.129M13.44 11.285a.12.12 0 0 0 .079-.031.12.12 0 0 0 .015-.168.127.127 0 0 0-.172-.012c-.047.043-.054.121-.011.168a.12.12 0 0 0 .09.043m1-.789a.1.1 0 0 0 .07-.027.11.11 0 0 0 .024-.164.12.12 0 0 0-.168-.028c-.055.036-.062.114-.023.164a.12.12 0 0 0 .097.055m4.48-2.547a.116.116 0 0 0-.073.153.12.12 0 0 0 .113.082.1.1 0 0 0 .035-.008c.067-.02.098-.086.078-.153a.12.12 0 0 0-.152-.074m-1.202.446a.12.12 0 0 0-.063.156c.016.047.063.074.114.074a.1.1 0 0 0 .046-.012.12.12 0 0 0 .063-.156.12.12 0 0 0-.16-.062m18.523 4.628c.024.024.059.04.094.04a.13.13 0 0 0 .078-.028.12.12 0 0 0 .012-.168.12.12 0 0 0-.168-.015c-.055.043-.059.117-.016.171m-.773-.898a.1.1 0 0 0 .082-.035.12.12 0 0 0 0-.168.12.12 0 0 0-.168 0 .123.123 0 0 0 0 .172.12.12 0 0 0 .086.031m-14.032-4.54q.013 0 .02-.003a.12.12 0 0 0 .102-.133.123.123 0 0 0-.141-.101.115.115 0 0 0-.098.136.12.12 0 0 0 .117.102m-1.25.25c.008 0 .02 0 .028-.003a.125.125 0 0 0 .09-.148c-.016-.063-.082-.102-.149-.09v.004a.126.126 0 0 0-.09.144c.02.055.067.094.122.094M16.556 8.93a.12.12 0 0 0-.051.164c.02.043.062.066.105.066a.1.1 0 0 0 .055-.015.117.117 0 0 0 .05-.16.12.12 0 0 0-.16-.055m23.511 13.28c.008.063.059.114.121.114h.008a.12.12 0 0 0 .11-.133.12.12 0 0 0-.238.02M7.973 20.86a.117.117 0 0 0-.137.1.12.12 0 0 0 .098.138h.02a.124.124 0 0 0 .12-.102c.008-.066-.039-.129-.101-.137m18.586 18.566c-.067.011-.114.07-.102.136a.125.125 0 0 0 .121.106c.004 0 .012-.004.02-.004a.12.12 0 0 0 .097-.137c-.011-.066-.07-.113-.136-.101m7.968-28.164c.035 0 .07-.012.094-.043a.115.115 0 0 0-.016-.168h.004a.123.123 0 0 0-.172.015.12.12 0 0 0 .012.168c.024.02.055.028.078.028M7.797 22.363h.008c.062 0 .117-.05.12-.113.005-.062-.046-.121-.112-.129a.124.124 0 0 0-.13.113.12.12 0 0 0 .114.13m32.031 4.79a.116.116 0 0 0-.144.085.125.125 0 0 0 .09.149l.027.004c.054 0 .105-.04.117-.094a.12.12 0 0 0-.09-.145m-31.32-8.54a.1.1 0 0 0 .035.004c.05 0 .098-.031.113-.078a.12.12 0 0 0-.078-.152c-.062-.024-.129.015-.148.074a.117.117 0 0 0 .078.152m31.656 7.422c.012-.066-.035-.125-.102-.137-.062-.011-.124.036-.136.102a.12.12 0 0 0 .101.137h.02c.058 0 .11-.043.117-.102m.035-1.406a.12.12 0 0 0-.125.113.116.116 0 0 0 .11.13h.007c.063 0 .114-.052.121-.114a.124.124 0 0 0-.113-.13m-29.351-10.54q.06.001.101-.05a.127.127 0 0 0-.027-.168c-.055-.035-.133-.023-.168.027v.004c-.04.051-.027.125.027.168q.03.019.067.02m15.648-6.51h.02c.058 0 .109-.04.12-.102a.125.125 0 0 0-.1-.137c-.067-.008-.13.035-.138.101a.117.117 0 0 0 .098.137m13.742 15.776a.12.12 0 0 0-.12.122c0 .066.054.12.12.12a.12.12 0 0 0 .121-.12.12.12 0 0 0-.12-.122M11.641 13.09a.12.12 0 0 0 .09-.047c.042-.047.035-.125-.016-.168a.115.115 0 0 0-.168.016.115.115 0 0 0 .015.168q.036.03.079.03m-1.602 1.879a.12.12 0 0 0 .04.164q.027.021.062.02a.12.12 0 0 0 .101-.06.124.124 0 0 0-.039-.167.12.12 0 0 0-.164.043m24.621 20.79a.12.12 0 0 0-.168-.012.12.12 0 0 0-.015.168.13.13 0 0 0 .09.043.13.13 0 0 0 .081-.031.12.12 0 0 0 .012-.168M9.41 16.086c-.027.062-.008.137.05.164q.031.012.056.012a.13.13 0 0 0 .109-.063.126.126 0 0 0-.055-.164.12.12 0 0 0-.16.05m19.55-7.922a.1.1 0 0 0 .036.004c.05 0 .098-.031.113-.082a.12.12 0 0 0-.074-.152.123.123 0 0 0-.152.078.12.12 0 0 0 .078.152m7.317 25.79a.12.12 0 0 0 .012.167q.034.03.082.031a.12.12 0 0 0 .09-.043.115.115 0 0 0-.012-.168.12.12 0 0 0-.172.012M32.402 9.745c.02.016.043.02.063.02.039 0 .082-.02.101-.059a.12.12 0 0 0-.039-.168.12.12 0 0 0-.164.04c-.035.058-.02.136.04.167M20.234 39.187a.12.12 0 0 0-.144.09.123.123 0 0 0 .117.149c.055 0 .105-.04.117-.09.016-.07-.023-.137-.09-.148m12.34-1.746a.12.12 0 0 0 .04-.168.12.12 0 0 0-.169-.035.12.12 0 0 0-.035.164c.024.04.063.059.102.059a.1.1 0 0 0 .062-.02M31.297 9.13a.14.14 0 0 0 .055.016.13.13 0 0 0 .109-.067.126.126 0 0 0-.055-.164.12.12 0 0 0-.16.055.12.12 0 0 0 .05.16M15.574 37.254a.13.13 0 0 0-.168.043.124.124 0 0 0 .04.164q.03.017.062.016c.043 0 .082-.016.101-.055a.117.117 0 0 0-.035-.168m17.953-26.781q.062 0 .098-.047a.12.12 0 0 0-.027-.168.12.12 0 0 0-.168.027.127.127 0 0 0 .027.168c.02.016.047.02.07.02m-3.379-1.871a.2.2 0 0 0 .047.007c.047 0 .09-.027.11-.074a.12.12 0 0 0-.063-.156v.004a.12.12 0 0 0-.156.062.117.117 0 0 0 .062.157M21.477 39.43c-.067-.008-.13.035-.137.101a.123.123 0 0 0 .101.14h.016c.059 0 .11-.042.121-.1a.126.126 0 0 0-.101-.141m12.191-2.871a.12.12 0 0 0-.168-.028.12.12 0 0 0-.027.168.117.117 0 0 0 .168.027.12.12 0 0 0 .027-.167m-15.84 1.847c-.058-.027-.129.004-.156.067a.12.12 0 0 0 .066.156q.024.007.047.008a.11.11 0 0 0 .11-.075.12.12 0 0 0-.067-.156m11.262.653a.12.12 0 0 0 .078-.153c-.02-.062-.086-.093-.152-.078a.13.13 0 0 0-.078.152.13.13 0 0 0 .117.086q.017.002.035-.007m-6.356.52a.12.12 0 0 0-.129.112.116.116 0 0 0 .11.13h.012a.12.12 0 0 0 .117-.11c.004-.066-.043-.129-.11-.133m1.305.046-.023.004H24c-.07 0-.121.05-.121.121 0 .066.05.117.121.117h.039a.12.12 0 0 0 .121-.12.12.12 0 0 0-.12-.122m-9.684-3.047c-.039.05-.027.125.024.168a.2.2 0 0 0 .07.02c.04 0 .074-.012.098-.047a.12.12 0 0 0-.024-.168.12.12 0 0 0-.168.027m2.325 1.297a.117.117 0 0 0-.16.05.12.12 0 0 0 .05.165.1.1 0 0 0 .055.012.12.12 0 0 0 .105-.067.117.117 0 0 0-.05-.16m21.093-22.977a.117.117 0 0 0-.039.165.12.12 0 0 0 .106.058q.032.001.062-.016a.123.123 0 0 0 .035-.168.12.12 0 0 0-.164-.039m-.718-1.054a.12.12 0 0 0-.028.168.13.13 0 0 0 .098.05.1.1 0 0 0 .07-.023.12.12 0 0 0 .028-.168.12.12 0 0 0-.168-.027m-18.035 25a.123.123 0 0 0-.153.078.12.12 0 0 0 .078.152q.018.007.035.008a.12.12 0 0 0 .114-.086c.023-.066-.016-.129-.074-.152m.535-29.59a.14.14 0 0 0-.094.176.14.14 0 0 0 .133.097q.02.001.043-.004a.14.14 0 0 0 .09-.175.134.134 0 0 0-.172-.094M9.46 26.223a.144.144 0 0 0-.113.164.14.14 0 0 0 .14.113q.012.001.024-.004a.14.14 0 0 0 .113-.164.14.14 0 0 0-.164-.11m27.418-9.692c.023.047.07.074.121.074a.14.14 0 0 0 .07-.015c.07-.04.09-.125.055-.192a.136.136 0 0 0-.187-.054.134.134 0 0 0-.06.187M9.484 20.016a.134.134 0 0 0 .102.168q.018.004.035.003a.14.14 0 0 0 .137-.105.14.14 0 0 0-.106-.168.135.135 0 0 0-.168.102m1.371-3.59a.14.14 0 0 0 .055.191.15.15 0 0 0 .07.016.14.14 0 0 0 .125-.07.144.144 0 0 0-.058-.192.137.137 0 0 0-.192.055m27.926 7.23a.143.143 0 0 0-.14.14.137.137 0 0 0 .136.142h.004a.14.14 0 0 0 .14-.137.146.146 0 0 0-.14-.145m-14.75 14.496H24a.14.14 0 0 0-.14.141c0 .078.062.14.14.14h.036a.14.14 0 0 0 .136-.14.14.14 0 0 0-.14-.14M9.355 21.438h.02a.135.135 0 0 0 .137-.118.14.14 0 0 0-.277-.043.144.144 0 0 0 .12.16m9.7 15.859a.14.14 0 0 0-.18.086.14.14 0 0 0 .086.18.2.2 0 0 0 .047.007.145.145 0 0 0 .133-.093.14.14 0 0 0-.086-.18M38.922 23.8q0 .006 0 0 0 .006 0 0m-7.527 12.676a.144.144 0 0 0 .05-.196.14.14 0 0 0-.191-.05.14.14 0 0 0 .07.261c.028 0 .047-.008.07-.015M9.23 22.703h.012a.14.14 0 0 0 .14-.133.14.14 0 0 0-.132-.148.14.14 0 0 0-.148.133.145.145 0 0 0 .128.148m11.028 14.969a.134.134 0 0 0-.168.101c-.024.07.023.149.098.172h.035c.062 0 .12-.039.136-.101a.14.14 0 0 0-.101-.172m13.265-2.856c-.046-.062-.136-.066-.199-.015a.137.137 0 0 0-.015.195q.043.051.109.05a.16.16 0 0 0 .09-.03.14.14 0 0 0 .015-.2m-6.984 3.118c-.074.011-.125.086-.113.164.012.066.07.113.137.113h.027a.147.147 0 0 0 .113-.164.14.14 0 0 0-.164-.113m-9.36-27.707a.134.134 0 0 0-.058.187c.024.047.07.074.121.074a.138.138 0 0 0 .125-.203c-.035-.066-.12-.098-.187-.058m18.723 21.816a.14.14 0 0 0 .032.195.137.137 0 0 0 .195-.031.143.143 0 0 0-.035-.195.134.134 0 0 0-.192.031M18.344 9.688a.14.14 0 0 0-.074.183c.02.055.074.086.128.086q.028.002.055-.008a.14.14 0 0 0 .074-.183c-.027-.075-.109-.106-.183-.079m-3.364 2.101c.028.035.07.055.114.055a.139.139 0 0 0 .11-.223.14.14 0 0 0-.196-.027.14.14 0 0 0-.028.195m15.274 25.274a.145.145 0 0 0 .07-.188.145.145 0 0 0-.187-.07v.004a.139.139 0 0 0 .058.265q.03 0 .059-.011m2.625-25.239q.066-.002.11-.054a.14.14 0 0 0-.024-.2.14.14 0 0 0-.195.028.14.14 0 0 0 .023.199.14.14 0 0 0 .086.027m-9.535-2.949h.008c.074-.004.132-.07.132-.148a.14.14 0 0 0-.144-.133.14.14 0 0 0-.137.144.14.14 0 0 0 .14.137M38.719 24.93a.14.14 0 0 0-.157.125.143.143 0 0 0 .122.156h.015c.074 0 .133-.05.137-.125h.004a.14.14 0 0 0-.121-.156M16.063 10.86a.144.144 0 0 0-.043.195.14.14 0 0 0 .12.066q.037 0 .075-.023a.14.14 0 0 0 .043-.192.145.145 0 0 0-.195-.047m-4.883 20.3c.027.043.074.07.12.07q.041 0 .075-.023a.14.14 0 0 0 .047-.191.144.144 0 0 0-.195-.051.145.145 0 0 0-.047.195M22.078 8.984h.02a.146.146 0 0 0 .12-.156.14.14 0 0 0-.155-.121h-.004a.135.135 0 0 0-.118.156c.004.07.067.121.137.121m16.29 11.172q.016-.001.034-.008a.14.14 0 0 0 .106-.168.143.143 0 0 0-.172-.101.14.14 0 0 0-.102.168c.012.066.07.11.133.11m-15.63 17.942a.143.143 0 0 0-.152.129.143.143 0 0 0 .129.152h.012c.07 0 .136-.055.136-.129.012-.078-.047-.145-.125-.152M35.492 14.43c.028.035.07.054.11.054a.16.16 0 0 0 .09-.03.14.14 0 0 0 .019-.196.134.134 0 0 0-.195-.024.14.14 0 0 0-.024.196M20.824 9.203q.013.001.031-.004a.14.14 0 0 0-.062-.273.135.135 0 0 0-.105.164c.011.066.07.113.136.113m5.043-.223h.016c.07 0 .129-.05.14-.12a.14.14 0 0 0-.125-.157.14.14 0 0 0-.156.121.146.146 0 0 0 .125.156m-4.379 28.958a.14.14 0 0 0-.16.117c-.015.074.035.144.113.16l.024.004a.15.15 0 0 0 .14-.117.14.14 0 0 0-.117-.164m-9.117-23.43a.13.13 0 0 0 .113-.055.14.14 0 0 0-.023-.195.14.14 0 0 0-.2.023c-.046.059-.034.149.024.2a.15.15 0 0 0 .086.027M29.066 37.55a.14.14 0 0 0 .086-.18.136.136 0 0 0-.18-.082.14.14 0 0 0-.085.176.15.15 0 0 0 .136.094q.02.002.043-.008M11.551 15.52c.027.011.05.023.078.023.047 0 .09-.023.117-.066a.135.135 0 0 0-.039-.192.143.143 0 0 0-.195.04.143.143 0 0 0 .039.195m23.117-2.043a.15.15 0 0 0 .105.043.13.13 0 0 0 .094-.04.134.134 0 0 0 .008-.195.14.14 0 0 0-.2-.008.14.14 0 0 0-.007.2M24.609 8.875a.146.146 0 0 0 .149-.137.143.143 0 0 0-.137-.144.137.137 0 0 0-.144.133.14.14 0 0 0 .132.148m9.852 25.082a.14.14 0 0 0-.2-.004.14.14 0 0 0-.003.2.15.15 0 0 0 .101.042.15.15 0 0 0 .098-.039.14.14 0 0 0 .004-.199M14.109 12.652a.14.14 0 0 0 .094-.035.14.14 0 0 0 .012-.199.14.14 0 0 0-.2-.012.14.14 0 0 0-.011.2.15.15 0 0 0 .105.046m17.645-1.57q.036.024.074.023a.14.14 0 0 0 .121-.066.145.145 0 0 0-.043-.195.144.144 0 0 0-.195.047.135.135 0 0 0 .043.191m-18.55 2.461q.058-.001.1-.043a.14.14 0 0 0-.003-.2.14.14 0 0 0-.2.005.14.14 0 0 0 .004.199.16.16 0 0 0 .098.039m14.6 24.395q.023.001.04-.004a.144.144 0 0 0 .101-.172c-.023-.075-.097-.121-.172-.098-.078.016-.12.094-.101.172.015.059.07.102.133.102m10.81-15.403a.14.14 0 0 0 .136.133h.012a.14.14 0 0 0 .129-.148.14.14 0 0 0-.149-.133c-.074.008-.137.074-.129.148m-28.512-3.664a.145.145 0 0 0-.09-.18.145.145 0 0 0-.18.09.143.143 0 0 0 .09.18q.02.007.043.008a.15.15 0 0 0 .137-.098m28.492 2.254a.14.14 0 0 0-.121.16c.011.07.074.117.14.117h.02a.136.136 0 0 0 .117-.16.133.133 0 0 0-.156-.117m-28.043-3.43a.14.14 0 0 0-.07-.187.145.145 0 0 0-.188.074c-.031.066.004.152.074.184a.14.14 0 0 0 .184-.07m-.633 9.864a.14.14 0 0 0-.172-.098.146.146 0 0 0-.098.176.14.14 0 0 0 .137.101q.02.001.04-.004a.14.14 0 0 0 .093-.175m.223 1.113a.14.14 0 0 0-.082.18.14.14 0 0 0 .132.093.2.2 0 0 0 .047-.008c.07-.03.11-.113.082-.183a.14.14 0 0 0-.18-.082m27.629.23a.2.2 0 0 0 .046.008.141.141 0 0 0 .05-.273.145.145 0 0 0-.178.082h.003a.14.14 0 0 0 .079.183M9.31 25.243a.14.14 0 0 0 .126-.156.14.14 0 0 0-.157-.125.14.14 0 0 0-.12.156h-.005c.008.07.07.125.14.125zm7.454 11.004c-.067-.035-.153-.016-.188.055a.135.135 0 0 0 .05.187.12.12 0 0 0 .071.02.14.14 0 0 0 .121-.074c.035-.063.016-.153-.054-.188m12.75-26.309a.2.2 0 0 0 .05.008c.055 0 .11-.03.13-.086a.14.14 0 0 0-.075-.183.137.137 0 0 0-.183.078.14.14 0 0 0 .078.184M9.219 23.978a.146.146 0 0 0 .136-.149.14.14 0 0 0-.144-.133.137.137 0 0 0-.137.14c0 .08.067.142.145.142m28.93-5.227a.14.14 0 0 0-.176-.09.143.143 0 0 0-.09.18c.02.058.074.098.133.098q.022-.001.047-.008a.14.14 0 0 0 .085-.18m-9.82-9.238q.015.007.038.008a.14.14 0 0 0 .133-.102.14.14 0 0 0-.09-.176.14.14 0 0 0-.176.094.14.14 0 0 0 .094.176M37.44 30c.036-.066.004-.152-.066-.187a.14.14 0 0 0-.187.066.14.14 0 0 0 .066.187.1.1 0 0 0 .059.016.15.15 0 0 0 .128-.082m-24.746 3.043a.133.133 0 0 0-.011.195c.023.035.062.051.105.051a.14.14 0 0 0 .09-.035.134.134 0 0 0 .016-.195.14.14 0 0 0-.2-.016m-1.875-3.137a.137.137 0 0 0-.187-.062.14.14 0 0 0-.063.187.13.13 0 0 0 .121.078.2.2 0 0 0 .063-.011.144.144 0 0 0 .066-.192m2.735 4.074a.138.138 0 0 0 .105.234q.053.002.102-.038a.145.145 0 0 0-.004-.2.143.143 0 0 0-.203.004m.941.856a.14.14 0 0 0 .02.2c.023.019.058.03.09.03.039 0 .082-.015.105-.05a.14.14 0 0 0-.02-.2.14.14 0 0 0-.195.02m-2.383-2.77a.14.14 0 0 0-.195-.03.143.143 0 0 0-.035.194c.027.04.07.06.113.06a.12.12 0 0 0 .082-.028c.067-.043.078-.13.035-.196m25.575-14.515a.14.14 0 0 0-.184-.07c-.074.027-.106.109-.074.183.023.05.074.086.129.086.02 0 .039-.008.058-.016a.14.14 0 0 0 .07-.183m.687 8.75a.14.14 0 0 0 .113.164q.014.005.028.004a.14.14 0 0 0 .136-.114.137.137 0 0 0-.109-.164.14.14 0 0 0-.168.11m-22.871 9.312a.14.14 0 0 0 .039.196c.023.015.05.027.078.027.043 0 .09-.023.117-.063a.14.14 0 0 0-.039-.195.136.136 0 0 0-.195.035m21.086-4.625a.144.144 0 0 0 .05.192.2.2 0 0 0 .07.02.14.14 0 0 0 .07-.262.14.14 0 0 0-.19.05m1.765-3.383a.137.137 0 0 0-.097-.175.135.135 0 0 0-.172.097.14.14 0 0 0 .098.172.1.1 0 0 0 .035.008.15.15 0 0 0 .136-.102M32.48 35.79a.136.136 0 0 0 .036-.195.134.134 0 0 0-.192-.035.14.14 0 0 0-.039.195c.028.039.07.059.113.059a.1.1 0 0 0 .082-.024m1.286-23.191a.15.15 0 0 0 .093.035.14.14 0 0 0 .106-.047.14.14 0 0 0-.012-.2.14.14 0 0 0-.2.012.14.14 0 0 0 .013.2m-6.66-3.407q.018.007.03.008a.145.145 0 0 0 .137-.113.14.14 0 0 0-.109-.168.144.144 0 0 0-.168.11.144.144 0 0 0 .11.163m9.164 6.067a.14.14 0 0 0-.04.195c.028.04.07.063.118.063a.15.15 0 0 0 .078-.024.143.143 0 0 0 .039-.195.14.14 0 0 0-.195-.04m-10.98 22.84a.137.137 0 0 0-.126.152.137.137 0 0 0 .137.129h.015a.14.14 0 0 0 .125-.156.14.14 0 0 0-.152-.125m-7.403-1.278a.14.14 0 0 0-.184.07.137.137 0 0 0 .07.188.1.1 0 0 0 .055.012.14.14 0 0 0 .129-.078.14.14 0 0 0-.07-.192m17.234-3.789a.15.15 0 0 0 .016.203q.04.031.093.032a.15.15 0 0 0 .106-.047c.047-.063.043-.149-.016-.2a.14.14 0 0 0-.199.012m-4.46-22.57a.2.2 0 0 0 .062.016c.05 0 .101-.028.125-.079a.14.14 0 0 0-.059-.187.14.14 0 0 0-.191.062.14.14 0 0 0 .062.188m-7.306-.11h.008a.16.16 0 0 0-.012-.32.164.164 0 0 0-.156.168.165.165 0 0 0 .16.153m6.836 24.965a.164.164 0 0 0-.218-.07.161.161 0 0 0 .074.305c.023 0 .05-.008.07-.02a.16.16 0 0 0 .074-.215m-17.035-4.05a.166.166 0 0 0-.035.226c.031.04.082.067.129.067.035 0 .07-.012.094-.036a.16.16 0 0 0 .039-.222.166.166 0 0 0-.227-.035m24.301-6.832a.157.157 0 0 0-.148-.172.153.153 0 0 0-.168.148.153.153 0 0 0 .148.168c.004.004.004.004.012.004a.16.16 0 0 0 .156-.148m-19-13.235a.17.17 0 0 0-.082.215.16.16 0 0 0 .148.094.13.13 0 0 0 .067-.016c.082-.035.117-.129.082-.21a.163.163 0 0 0-.215-.083m10.512 24.852a.16.16 0 0 0 .09-.207.16.16 0 0 0-.207-.09.16.16 0 0 0-.094.207.17.17 0 0 0 .152.102q.03 0 .059-.012m-14.63-21.965a.16.16 0 0 0 .005.23.16.16 0 0 0 .11.043.17.17 0 0 0 .116-.046c.059-.067.059-.168-.004-.227a.16.16 0 0 0-.226 0m.907-.633a.166.166 0 0 0 .227.02.16.16 0 0 0 .015-.227.153.153 0 0 0-.222-.02h-.004a.16.16 0 0 0-.016.227m17.035 20.5a.161.161 0 0 0-.254.2.17.17 0 0 0 .13.058.16.16 0 0 0 .097-.031.16.16 0 0 0 .027-.227m-20.246-4.555a.154.154 0 0 0 .074-.21.154.154 0 0 0-.21-.075.16.16 0 0 0-.079.211.16.16 0 0 0 .149.09.1.1 0 0 0 .066-.016m14.508 7.36a.157.157 0 0 0 .125-.188.163.163 0 0 0-.188-.129.163.163 0 0 0-.128.188.16.16 0 0 0 .16.133zm7.684-21.547a.16.16 0 0 0 .125.062q.053 0 .101-.035a.16.16 0 1 0-.203-.25.16.16 0 0 0-.023.223m3.093 7.8c-.09 0-.16.075-.16.165a.163.163 0 0 0 .16.156h.008a.163.163 0 0 0 .156-.164.16.16 0 0 0-.164-.156m-25.687 5.04a.167.167 0 0 0-.207-.098.162.162 0 0 0 .054.313q.03 0 .06-.012c.081-.027.12-.121.093-.203m9.219-17.664a.16.16 0 0 0-.122.191c.02.074.082.125.157.125a.1.1 0 0 0 .035-.008c.09-.02.14-.105.121-.191a.157.157 0 0 0-.191-.117m-3.579 1.61c.028.05.082.077.137.077a.2.2 0 0 0 .082-.015.17.17 0 0 0 .059-.223.16.16 0 0 0-.219-.059.156.156 0 0 0-.059.22M11.148 27.07a.163.163 0 0 0 .114-.199.167.167 0 0 0-.2-.113.163.163 0 0 0-.109.199c.016.07.082.117.156.117q.014.001.04-.004m3.645 6.082a.164.164 0 0 0 .008.227q.048.042.11.043a.17.17 0 0 0 .116-.05c.059-.067.059-.169-.007-.227a.157.157 0 0 0-.227.007m12.25-22.46a.1.1 0 0 0 .039.003.16.16 0 0 0 .035-.316.16.16 0 0 0-.191.117.16.16 0 0 0 .117.195m-10.82 1.984c.035.043.082.07.132.07a.2.2 0 0 0 .094-.027h-.004a.16.16 0 0 0 .04-.223.16.16 0 0 0-.223-.043c-.07.047-.086.149-.04.223m-2.067 19.586a.16.16 0 0 0-.238.215q.049.051.121.05a.16.16 0 0 0 .106-.039.16.16 0 0 0 .011-.226m19.699-.024a.166.166 0 0 0 .016.23c.031.024.07.04.106.04.043 0 .09-.02.12-.055a.157.157 0 0 0-.015-.226.157.157 0 0 0-.227.011m-11.09 4.383a.16.16 0 0 0-.175.145.16.16 0 0 0 .144.175h.016a.16.16 0 0 0 .16-.144.16.16 0 0 0-.144-.176m5.462-25.59q.029.01.05.008a.161.161 0 0 0 .055-.312.165.165 0 0 0-.207.101.16.16 0 0 0 .102.203m2.253 1.008q.036.022.079.02a.16.16 0 0 0 .078-.301.163.163 0 0 0-.219.058.164.164 0 0 0 .062.223m6.458 14.691a.16.16 0 0 0-.196.114.16.16 0 0 0 .113.195q.023.005.04.004a.16.16 0 0 0 .156-.121.155.155 0 0 0-.114-.192m-24.243 3.543a.16.16 0 0 0-.273.165c.031.05.082.082.137.082a.13.13 0 0 0 .082-.028.156.156 0 0 0 .054-.219M37.13 25.82h.027a.156.156 0 0 0 .157-.133.163.163 0 0 0-.133-.187.165.165 0 0 0-.184.137c-.012.086.047.172.133.183m-2.035-9.543a.16.16 0 0 0 .09-.027.16.16 0 0 0 .043-.223.165.165 0 0 0-.223-.043.166.166 0 0 0-.043.223c.031.047.082.07.133.07m-2.61-3.05a.156.156 0 0 0 .016.222c.031.028.07.04.105.04q.072 0 .122-.06a.16.16 0 0 0-.016-.226.16.16 0 0 0-.227.024M22.09 10.148a.165.165 0 0 0-.137.184.16.16 0 0 0 .16.137q.012.001.024-.004a.154.154 0 0 0 .133-.18.157.157 0 0 0-.18-.137M37.188 20.66a.16.16 0 0 0-.192-.125.16.16 0 0 0-.121.192c.012.074.082.125.156.125q.016.001.032-.004a.155.155 0 0 0 .124-.188m-13.16 16.016q-.009-.001-.016.004-.006-.005-.012-.004a.164.164 0 0 0-.164.16c0 .09.074.16.164.16h.027c.09 0 .16-.07.16-.16a.16.16 0 0 0-.16-.16M10.671 23.363c.086 0 .156-.07.16-.156 0-.09-.07-.16-.16-.164a.16.16 0 0 0-.164.156c0 .09.07.164.156.168q.004-.005.008-.004m.027 1.25h.012a.161.161 0 0 0-.024-.32.157.157 0 0 0-.148.172.16.16 0 0 0 .16.148m.145 1.239c.008 0 .02 0 .027-.004a.16.16 0 0 0 .137-.184.17.17 0 0 0-.188-.133.165.165 0 0 0-.133.184.16.16 0 0 0 .157.137m.27-5.094a.16.16 0 0 0-.122-.192.164.164 0 0 0-.191.125v-.003c-.016.09.039.175.125.19a.16.16 0 0 0 .188-.121m25.562 7.375a.16.16 0 0 0-.098-.207.156.156 0 0 0-.203.094.16.16 0 0 0 .094.207q.03.006.054.007a.15.15 0 0 0 .153-.101m-11.399 8.805h.016a.16.16 0 0 0 .145-.176.165.165 0 0 0-.18-.145.16.16 0 0 0-.145.176.165.165 0 0 0 .164.145m10.832-7.856a.163.163 0 0 0-.214.078.16.16 0 0 0 .078.215.2.2 0 0 0 .066.016.15.15 0 0 0 .145-.094c.043-.078.004-.176-.075-.215m-.52 1.332a.164.164 0 0 0-.054-.223.16.16 0 0 0-.219.055.157.157 0 0 0 .055.223.2.2 0 0 0 .078.02.15.15 0 0 0 .14-.075M11.12 19.463a.16.16 0 0 0 .106.204q.021.005.05.004a.16.16 0 0 0 .153-.113c.023-.082-.02-.176-.106-.2a.164.164 0 0 0-.203.106m8.512-8.726a.164.164 0 0 0-.102.203c.028.067.086.11.153.11q.03 0 .054-.012a.157.157 0 0 0 .098-.203.16.16 0 0 0-.203-.098m-7.867 7.453a.166.166 0 0 0-.211.09.156.156 0 0 0 .086.207q.032.017.062.016c.063 0 .121-.04.149-.102a.16.16 0 0 0-.086-.21m21.757-3.851a.17.17 0 0 0 .114-.047.17.17 0 0 0 0-.227.16.16 0 0 0-.227 0c-.062.059-.066.164-.004.223.032.035.074.05.117.05m-2.257 20.344a.16.16 0 0 0-.223-.051v.004a.16.16 0 0 0-.047.218.16.16 0 0 0 .137.075.15.15 0 0 0 .082-.024.157.157 0 0 0 .05-.222m-10.926 1.48a.16.16 0 0 0-.195.11.157.157 0 0 0 .109.199q.019.009.043.007c.07 0 .133-.046.156-.117a.163.163 0 0 0-.113-.199m-3.367-1.516a.16.16 0 0 0-.22.051c-.046.074-.026.176.048.219q.041.029.09.027a.16.16 0 0 0 .082-.297m1.074.61a.167.167 0 0 0-.219.07c-.039.078-.004.176.074.219v-.004q.035.022.075.02a.16.16 0 0 0 .14-.09.16.16 0 0 0-.07-.215m13.476-22.559q.043.029.09.028a.16.16 0 0 0 .133-.07.16.16 0 0 0-.039-.223.165.165 0 0 0-.223.039.16.16 0 0 0 .04.226m-20.785 9.414q.007.005.02.004a.16.16 0 0 0 .156-.14.16.16 0 0 0-.14-.18.154.154 0 0 0-.176.14c-.012.09.05.168.14.176m15.09-11.652.024.004a.156.156 0 0 0 .156-.137.163.163 0 0 0-.133-.183h-.004a.16.16 0 1 0-.043.316m-4.285 25.988a.163.163 0 0 0-.191.13.17.17 0 0 0 .128.187v-.004a.155.155 0 0 0 .188-.125.155.155 0 0 0-.125-.188m-9.16-19.16a.153.153 0 0 0-.067-.215.157.157 0 0 0-.214.063.16.16 0 0 0 .066.218q.034.022.074.02a.16.16 0 0 0 .14-.086M34.76 31.535a.16.16 0 0 0 .129-.066c.05-.074.039-.176-.036-.227a.16.16 0 0 0-.222.035.16.16 0 0 0 .035.227q.041.03.094.031m-22.01-15.48a.154.154 0 0 0 .047.218.2.2 0 0 0 .09.028c.05 0 .101-.028.133-.07a.16.16 0 0 0-.047-.223.16.16 0 0 0-.223.047m20.246 17.07a.157.157 0 0 0-.008.227.15.15 0 0 0 .117.046.15.15 0 0 0 .11-.043v.004a.16.16 0 1 0-.219-.234m-17.262.848a.16.16 0 0 0 .032.222.15.15 0 0 0 .097.035q.077-.002.125-.062a.16.16 0 0 0-.027-.227.16.16 0 0 0-.227.032M29.375 11.48a.2.2 0 0 0 .066.016.16.16 0 0 0 .149-.094.16.16 0 0 0-.082-.21.156.156 0 0 0-.211.081.157.157 0 0 0 .078.207M19.172 35.766a.157.157 0 0 0-.207.09.157.157 0 0 0 .09.206q.03.012.058.012a.155.155 0 0 0 .149-.101.154.154 0 0 0-.09-.207m16.566-18.418q.04.002.075-.02a.16.16 0 0 0 .066-.219c-.04-.078-.137-.105-.219-.062a.163.163 0 0 0-.062.219.15.15 0 0 0 .14.082m-22.215-2.09a.165.165 0 0 0 .227-.023.16.16 0 0 0-.027-.227.157.157 0 0 0-.223.023.16.16 0 0 0 .023.227m22.692 2.91a.156.156 0 0 0-.086.207.16.16 0 0 0 .148.098q.031 0 .063-.012a.16.16 0 0 0 .086-.211c-.035-.082-.13-.117-.211-.082m1 3.598a.165.165 0 0 0-.14.18h.003c.008.081.078.14.156.14h.02a.165.165 0 0 0 .14-.18.16.16 0 0 0-.18-.14M24.598 10.352h.007c.086 0 .157-.07.16-.153a.16.16 0 0 0-.152-.168.16.16 0 0 0-.168.153.16.16 0 0 0 .153.168m12.113 9.296q.023 0 .05-.007a.16.16 0 0 0 .102-.203.16.16 0 0 0-.199-.102.153.153 0 0 0-.102.2.155.155 0 0 0 .149.112m-8.938 16.817a.165.165 0 0 0 .11-.2c-.028-.085-.113-.136-.2-.109a.157.157 0 0 0-.109.2c.02.07.082.113.153.113.011 0 .03-.004.046-.004m8.215-11.719a.183.183 0 0 0-.16-.2.186.186 0 0 0-.2.165.18.18 0 0 0 .165.195c.004.004.012.004.016.004a.18.18 0 0 0 .18-.164m-.633 2.242a.18.18 0 0 0-.226.114.185.185 0 0 0 .117.23.2.2 0 0 0 .055.004.18.18 0 0 0 .172-.121.175.175 0 0 0-.118-.227m-.906 2.528a.18.18 0 0 0-.062-.246.187.187 0 0 0-.25.066.186.186 0 0 0 .16.273.18.18 0 0 0 .152-.093m.985-8.461c.02.086.093.144.18.144.011 0 .027 0 .034-.004a.18.18 0 1 0-.074-.351.18.18 0 0 0-.14.21m.257 2.433c.004.102.082.18.18.18a.177.177 0 0 0 .18-.18.177.177 0 0 0-.18-.18.18.18 0 0 0-.18.18M32.958 31.3a.18.18 0 1 0-.238.27.18.18 0 0 0 .12.046.2.2 0 0 0 .138-.058.19.19 0 0 0-.02-.258m2.625-5.168a.19.19 0 0 0 .219-.14h-.004a.184.184 0 0 0-.14-.216.18.18 0 0 0-.212.141.177.177 0 0 0 .137.215m-2.77-10.403a.18.18 0 0 0 .122-.046.184.184 0 0 0 .011-.258.183.183 0 0 0-.254-.012.176.176 0 0 0-.011.254.17.17 0 0 0 .133.062m-1.953-1.695a.16.16 0 0 0 .106.035.16.16 0 0 0 .144-.074.18.18 0 0 0-.039-.25.176.176 0 0 0-.25.04.177.177 0 0 0 .04.25m-4.441-1.973a.184.184 0 0 0 .215-.14.18.18 0 0 0-.14-.211.177.177 0 0 0-.216.14.18.18 0 0 0 .141.211m4.684 21.184a.185.185 0 0 0 .043-.254.18.18 0 0 0-.254-.035.174.174 0 0 0-.04.25c.036.05.09.074.145.074q.059 0 .106-.035m2.64-16.84a.18.18 0 0 0-.254-.039.181.181 0 0 0 .106.328q.058 0 .105-.035a.18.18 0 0 0 .043-.254m-8.535-4.531h.02c.09 0 .168-.07.18-.16a.183.183 0 0 0-.363-.04.183.183 0 0 0 .163.2m2.395.504a.184.184 0 0 0 .227-.117.185.185 0 0 0-.118-.227.18.18 0 0 0-.227.113c-.03.094.02.2.118.23m4.492 19.816a.176.176 0 0 0-.254-.011.176.176 0 0 0-.012.254.18.18 0 0 0 .254.012.18.18 0 0 0 .012-.255m-3.352-19.379q.038.012.074.012a.18.18 0 0 0 .164-.105c.04-.09 0-.2-.093-.239a.183.183 0 0 0-.239.09c-.039.094.004.2.094.242m1.09.551a.2.2 0 0 0 .09.028.19.19 0 0 0 .16-.09c.047-.09.02-.2-.066-.25a.184.184 0 0 0-.246.07.174.174 0 0 0 .062.242m-8.352-1.652a.18.18 0 0 0-.14.215.18.18 0 0 0 .176.14q.022.001.039-.004h.004a.183.183 0 0 0 .136-.214c-.023-.094-.12-.16-.215-.137m11.993 18.648a.181.181 0 0 0 .144.29c.055 0 .11-.028.145-.075a.185.185 0 0 0-.04-.254.18.18 0 0 0-.25.04m-3.426 3.575a.18.18 0 0 0 .066-.247.183.183 0 0 0-.246-.066.184.184 0 0 0-.066.25.18.18 0 0 0 .156.09.2.2 0 0 0 .09-.028m5.07-14.063a.18.18 0 0 0 .172.125c.02 0 .035-.004.055-.012a.18.18 0 0 0 .117-.226.184.184 0 0 0-.23-.114.18.18 0 0 0-.114.227M20.145 12.27a.18.18 0 0 0 .171.125q.025-.001.055-.008a.176.176 0 0 0 .113-.227.18.18 0 0 0-.226-.117.18.18 0 0 0-.113.227m15.644 9.796a.18.18 0 0 0-.16.2.18.18 0 0 0 .176.164q.012.001.02-.004a.18.18 0 0 0 .16-.2.18.18 0 0 0-.196-.16M23.984 11.813a.18.18 0 0 0 .18-.18.18.18 0 0 0-.18-.18.177.177 0 0 0-.18.18c0 .101.083.18.18.18m10.786 6.683c-.094.04-.137.145-.094.238a.183.183 0 0 0 .238.09.18.18 0 0 0-.144-.328m-2.973-3.945a.18.18 0 0 0 .015.254.18.18 0 0 0 .254-.012.18.18 0 0 0-.011-.254.18.18 0 0 0-.258.012m2.387 2.847a.183.183 0 0 0-.067.247.18.18 0 0 0 .156.09.15.15 0 0 0 .09-.024.18.18 0 0 0 .067-.246.176.176 0 0 0-.246-.067m-11.442-5.52.02-.003a.174.174 0 0 0 .16-.195.18.18 0 0 0-.2-.164.183.183 0 0 0-.16.199c.012.094.09.164.18.164m-8.87 17.481a.18.18 0 0 0-.247-.066.18.18 0 0 0-.066.246c.03.059.093.09.156.09a.2.2 0 0 0 .09-.024.183.183 0 0 0 .066-.246m3.136-15.273q.059 0 .105-.035h.004a.18.18 0 0 0 .035-.254.177.177 0 0 0-.25-.04.18.18 0 0 0-.043.255c.04.047.094.074.149.074M24.022 35.2H24a.183.183 0 0 0-.184.184c0 .097.082.18.184.18h.027c.098 0 .18-.083.18-.184a.19.19 0 0 0-.184-.18M12.367 24.734c-.008-.097-.101-.168-.199-.16a.183.183 0 0 0 .02.363c.003 0 .011 0 .015-.003a.183.183 0 0 0 .164-.2m4.504 8.278a.18.18 0 0 0 .293.21.18.18 0 0 0-.039-.253.18.18 0 0 0-.254.043m1.024-19.696c.03.059.093.09.156.09a.18.18 0 0 0 .156-.27.177.177 0 0 0-.246-.066.18.18 0 0 0-.066.246m-5.254 6.7q.03.009.054.007a.18.18 0 0 0 .172-.125.176.176 0 0 0-.113-.226.187.187 0 0 0-.23.117.185.185 0 0 0 .117.227m-.258 6.148q.018-.001.035-.008a.176.176 0 0 0 .14-.21.18.18 0 0 0-.214-.141.183.183 0 0 0-.137.215c.016.085.09.144.176.144m5.77 7.473a.18.18 0 0 0-.247.066.177.177 0 0 0 .067.246q.041.029.09.028a.183.183 0 0 0 .09-.34m1.09.558c-.09-.039-.2 0-.24.09-.038.094 0 .2.09.242a.2.2 0 0 0 .075.012.18.18 0 0 0 .164-.105c.043-.094 0-.2-.09-.239m-3.934-2.86a.176.176 0 0 0-.254-.015.18.18 0 0 0-.016.254q.053.06.137.059a.18.18 0 0 0 .117-.043.18.18 0 0 0 .016-.254m.609.876a.184.184 0 0 0 .016.258.2.2 0 0 0 .117.047c.05 0 .101-.024.137-.063a.176.176 0 0 0-.012-.254.19.19 0 0 0-.258.012m-3.75-9.758h.02c.09 0 .167-.07.175-.16a.176.176 0 0 0-.16-.2.18.18 0 0 0-.2.16.186.186 0 0 0 .165.2M27.746 34.97a.18.18 0 0 0 .117-.227.18.18 0 1 0-.343.113.184.184 0 0 0 .226.114m-15.043-7.606a.3.3 0 0 0 .055-.008.184.184 0 0 0 .117-.23.184.184 0 0 0-.23-.113.18.18 0 0 0-.114.226.18.18 0 0 0 .172.125m13.79 7.938q.015-.001.038-.008a.173.173 0 0 0 .137-.211.18.18 0 0 0-.215-.14.18.18 0 0 0-.137.214.18.18 0 0 0 .176.145m-10.45-20.43q.072 0 .125-.047a.18.18 0 0 0 .012-.258.183.183 0 0 0-.254-.011.176.176 0 0 0-.012.254.17.17 0 0 0 .129.062m-1.512 1.77a.185.185 0 0 0-.039-.254.185.185 0 0 0-.254.039.185.185 0 0 0 .04.254.2.2 0 0 0 .105.035.19.19 0 0 0 .148-.074m4.461-3.907a.18.18 0 0 0 .164.106.2.2 0 0 0 .074-.016.177.177 0 0 0 .09-.238.177.177 0 0 0-.238-.09.18.18 0 0 0-.09.238M34.93 28.152a.182.182 0 0 0-.148.332c.027.008.05.016.073.016.07 0 .137-.04.165-.11a.177.177 0 0 0-.09-.238m-6.004 6.36a.18.18 0 0 0 .09-.239.177.177 0 0 0-.239-.09.18.18 0 0 0-.09.239.18.18 0 0 0 .165.105c.023.004.046-.004.074-.015m-15.703-6.004a.18.18 0 0 0 .093-.238.185.185 0 0 0-.242-.094c-.09.039-.129.148-.09.242v-.004c.032.066.098.11.168.11.02 0 .047-.004.07-.016m1.945-12.758a.2.2 0 0 0 .133-.062c.066-.075.062-.192-.012-.254a.18.18 0 0 0-.254.011.176.176 0 0 0 .012.254q.052.052.121.051m7.605 19.387a.18.18 0 0 0-.195.16.176.176 0 0 0 .16.2c.004.003.012.003.016.003.094 0 .172-.07.18-.164a.18.18 0 0 0-.16-.2m-8.382-4.465q.058 0 .105-.035a.18.18 0 0 0 .04-.254.177.177 0 0 0-.25-.04.181.181 0 0 0 .105.329m10.855 4.465a.183.183 0 0 0-.164.199c.012.094.09.16.18.16h.02a.18.18 0 0 0 .16-.2.174.174 0 0 0-.196-.16M12.34 21.223c.015 0 .023.004.039.004a.18.18 0 0 0 .176-.145.173.173 0 0 0-.14-.21.175.175 0 0 0-.212.136.177.177 0 0 0 .137.215m9.226 13.726a.18.18 0 0 0-.214.137.18.18 0 0 0 .18.219.18.18 0 0 0 .175-.14.18.18 0 0 0-.14-.216M13.07 18.848a.2.2 0 0 0 .075.015c.07 0 .136-.039.164-.11a.182.182 0 0 0-.332-.148v.004c-.04.09 0 .2.093.239m7.313 15.785a.18.18 0 0 0-.227.117.18.18 0 0 0 .114.227q.03.006.058.007c.074 0 .149-.05.172-.125a.18.18 0 0 0-.117-.226M12.12 23.695a.182.182 0 0 0 0-.363.182.182 0 0 0 0 .363m1.586-5.941a.18.18 0 0 0 .156-.09.18.18 0 0 0-.066-.246.183.183 0 0 0-.246.066c-.051.086-.02.2.066.246.031.02.059.024.09.024m14.02 15.7a.2.2 0 0 0 .117-.259.21.21 0 0 0-.262-.117.205.205 0 0 0-.117.262c.031.078.11.129.191.129.02 0 .043-.008.07-.016m3.226-1.919c.082-.074.09-.2.02-.285a.202.202 0 0 0-.305.266c.039.043.098.07.152.07a.24.24 0 0 0 .133-.05m-6.367-18.23h.012a.2.2 0 0 0 .199-.188.196.196 0 0 0-.188-.21.2.2 0 0 0-.21.187.2.2 0 0 0 .187.21M14.339 27.629q.04.001.079-.016a.2.2 0 0 0 .11-.261.2.2 0 0 0-.262-.11.204.204 0 0 0-.114.262c.036.078.11.125.188.125m11.45-14.184h.035c.098 0 .18-.066.2-.164a.205.205 0 0 0-.165-.234.2.2 0 0 0-.23.164.2.2 0 0 0 .16.234m8.824 10.352a.197.197 0 0 0-.195-.203.2.2 0 0 0-.203.195c-.004.11.082.2.191.203h.008a.2.2 0 0 0 .2-.195m-21.011-2.469a.2.2 0 0 0 .199.242c.09 0 .176-.066.195-.16.024-.105-.05-.21-.156-.238a.2.2 0 0 0-.238.156m.457-.96q.032.01.062.01a.2.2 0 0 0 .188-.136.197.197 0 0 0-.121-.254.204.204 0 0 0-.258.125.2.2 0 0 0 .129.254m17.78 10.003a.203.203 0 0 0-.284.016.195.195 0 0 0 .011.281q.06.054.137.055a.203.203 0 0 0 .137-.352m1.376-11.277c.039.07.105.113.183.113a.2.2 0 0 0 .086-.02.206.206 0 0 0 .094-.269.2.2 0 0 0-.266-.09.197.197 0 0 0-.097.266m-2.91-3.68a.2.2 0 0 0 .16-.082.2.2 0 1 0-.281.04q.058.04.12.042m2.324 2.621a.2.2 0 0 0 .168.094.2.2 0 0 0 .11-.031.206.206 0 0 0 .062-.278h-.004a.2.2 0 0 0-.278-.062.204.204 0 0 0-.058.277M20.438 33.09a.197.197 0 0 0-.254.117.196.196 0 0 0 .117.258q.035.014.07.015c.078 0 .156-.05.188-.132a.2.2 0 0 0-.122-.258m10.66-17.211a.203.203 0 0 0 .004.285.22.22 0 0 0 .14.055.2.2 0 0 0 .145-.059.203.203 0 0 0-.004-.285.203.203 0 0 0-.285.004m-8.309 17.777a.199.199 0 1 0-.043.395.04.04 0 0 0 .02.004.203.203 0 0 0 .203-.176.21.21 0 0 0-.18-.223m-3.457-1.054a.2.2 0 0 0-.27.086.2.2 0 0 0 .086.269.2.2 0 0 0 .27-.086.2.2 0 0 0-.086-.27m13.707-3.91a.2.2 0 0 0 .098.027.21.21 0 0 0 .175-.106.197.197 0 0 0-.082-.27.196.196 0 0 0-.27.079.196.196 0 0 0 .08.27m-.562 1.07a.2.2 0 0 0 .164-.082h.004a.2.2 0 0 0-.051-.282.2.2 0 0 0-.278.047.2.2 0 0 0 .047.282.2.2 0 0 0 .114.035m-.528-12.989a.2.2 0 0 0-.027.282.2.2 0 0 0 .156.074c.043 0 .09-.016.125-.047a.196.196 0 0 0 .027-.281.195.195 0 0 0-.28-.028M21.598 33.441a.2.2 0 0 0-.243.149c-.027.11.04.215.149.242a.2.2 0 0 0 .047.004.2.2 0 0 0 .047-.395m6.504-19.296a.2.2 0 0 0 .082.02.202.202 0 0 0 .082-.387.203.203 0 0 0-.266.1.2.2 0 0 0 .102.267m-2.864 19.507a.204.204 0 0 0-.18.223.205.205 0 0 0 .2.176h.027a.204.204 0 0 0 .176-.223.2.2 0 0 0-.223-.176m1.239.18q.022-.001.046-.008a.2.2 0 1 0-.094-.39h-.003a.207.207 0 0 0-.149.242.21.21 0 0 0 .2.156m-8.465-1.793a.2.2 0 0 0 .054.277.2.2 0 0 0 .114.036.21.21 0 0 0 .168-.09.205.205 0 0 0-.055-.278.2.2 0 0 0-.281.055M33.8 19.961a.196.196 0 0 0-.125.254.2.2 0 0 0 .187.137.2.2 0 0 0 .067-.012.21.21 0 0 0 .125-.258.194.194 0 0 0-.254-.121m-6.836-6.234q.029.006.062.007a.2.2 0 0 0 .188-.144.195.195 0 0 0-.133-.25.2.2 0 0 0-.25.137.203.203 0 0 0 .133.25m-10.508 16.68a.195.195 0 0 0-.281-.012.207.207 0 0 0-.016.285.21.21 0 0 0 .285.011.203.203 0 0 0 .012-.285m.586.863a.204.204 0 0 0 .023.285.2.2 0 0 0 .282-.024.2.2 0 0 0-.02-.281.207.207 0 0 0-.285.02m6.984 2.457H24a.2.2 0 0 0-.203.199.2.2 0 0 0 .203.199h.027c.114 0 .2-.09.2-.2a.197.197 0 0 0-.2-.198m5.153-19.032a.2.2 0 0 0 .101.028c.07 0 .137-.036.172-.098a.2.2 0 0 0-.07-.277.2.2 0 0 0-.274.07.2.2 0 0 0 .07.277m5.129 10.528c.097 0 .183-.07.199-.172a.2.2 0 0 0-.168-.227.203.203 0 0 0-.23.168.206.206 0 0 0 .171.23zm-18.41-8.07a.2.2 0 0 0 .156-.075.2.2 0 1 0-.309-.254.2.2 0 0 0 .027.281.2.2 0 0 0 .125.047m6.206-4.098a.2.2 0 0 0-.164.23.2.2 0 0 0 .2.168c.011 0 .023-.004.035-.004a.2.2 0 0 0 .16-.234.2.2 0 0 0-.23-.16m6.77 19.89a.204.204 0 0 0 .086-.273.2.2 0 0 0-.27-.086.21.21 0 0 0-.09.273.21.21 0 0 0 .274.086m1.082-.644a.2.2 0 0 0 .05-.278.2.2 0 0 0-.277-.054.2.2 0 0 0-.054.281.21.21 0 0 0 .168.086q.057 0 .113-.035M17.664 15.43q.072.001.125-.04a.204.204 0 0 0 .04-.28.205.205 0 0 0-.286-.04.21.21 0 0 0-.04.285.21.21 0 0 0 .161.075m2.04-1.64a.2.2 0 0 0-.102.265.2.2 0 0 0 .18.12.2.2 0 0 0 .081-.019.2.2 0 0 0 .102-.265.2.2 0 0 0-.262-.102m-5.009 14.85c.04.067.106.102.18.102a.2.2 0 0 0 .094-.023.206.206 0 0 0 .082-.274.206.206 0 0 0-.274-.082.206.206 0 0 0-.082.278m19.157-1.163a.2.2 0 0 0-.11-.262.204.204 0 0 0-.265.11.2.2 0 0 0 .113.26.2.2 0 0 0 .074.017.21.21 0 0 0 .188-.125m-12.97-14.125a.195.195 0 0 0-.132.25.2.2 0 0 0 .188.144q.028-.001.062-.008a.207.207 0 0 0 .133-.254c-.035-.105-.149-.168-.25-.132m-5.808 4.773a.213.213 0 0 0 .278-.062h-.004a.197.197 0 0 0-.059-.278.2.2 0 0 0-.277.063.203.203 0 0 0 .062.277m3.512-3.758a.207.207 0 0 0-.07.278.2.2 0 0 0 .175.097.3.3 0 0 0 .102-.027.2.2 0 0 0 .066-.277.195.195 0 0 0-.273-.07m-1.996 1.528a.206.206 0 0 0-.004.285.2.2 0 0 0 .148.058.2.2 0 0 0 .137-.054.2.2 0 0 0 .004-.286.203.203 0 0 0-.285-.003m-1.176 13.527a.203.203 0 0 0-.043.281.2.2 0 0 0 .164.082q.06 0 .113-.039a.197.197 0 0 0 .047-.277.2.2 0 0 0-.28-.047m-1.996-6.848c-.008.11.07.207.184.215h.015a.2.2 0 0 0 .2-.18.2.2 0 0 0-.184-.218.2.2 0 0 0-.215.183m.273 2.68q.017.001.028-.004a.196.196 0 0 0 .168-.227.197.197 0 0 0-.227-.168.2.2 0 0 0-.168.227.205.205 0 0 0 .2.172m.254 1.207a.2.2 0 0 0 .051-.008.2.2 0 0 0 .145-.246.205.205 0 0 0-.246-.14.2.2 0 0 0-.141.245c.023.09.101.149.191.149m20.23-3.883a.2.2 0 0 0 .2.184l.016-.004a.194.194 0 0 0 .18-.219c-.008-.11-.106-.187-.22-.18a.196.196 0 0 0-.175.22m-.167 3.844a.2.2 0 0 0 .05.008.201.201 0 0 0 .05-.395.205.205 0 0 0-.245.145.2.2 0 0 0 .145.242m-20.426-2.395h.004a.2.2 0 0 0 .195-.21.2.2 0 0 0-.207-.192.204.204 0 0 0-.195.207.21.21 0 0 0 .203.195m9.781-10.718h.012a.207.207 0 0 0 .191-.215.204.204 0 0 0-.214-.188.2.2 0 0 0-.188.211c.008.11.094.192.2.192m-8.96 5.636a.205.205 0 0 0 .093.27.2.2 0 0 0 .086.015.19.19 0 0 0 .18-.113.195.195 0 0 0-.094-.265.2.2 0 0 0-.266.093m19.593 2.434a.2.2 0 0 0 .195.16q.022.001.043-.004a.21.21 0 0 0 .157-.238.207.207 0 0 0-.243-.156.2.2 0 0 0-.152.238m-12.355 10.55a.221.221 0 1 0-.122.426.221.221 0 0 0 .122-.425m7.156-.59a.22.22 0 0 0 .074-.304.226.226 0 0 0-.305-.07.22.22 0 0 0-.074.305.22.22 0 0 0 .192.101.2.2 0 0 0 .113-.031m-12.758-3.48a.2.2 0 0 0 .102-.027.217.217 0 0 0 .093-.297.223.223 0 0 0-.297-.094.22.22 0 0 0-.093.297.22.22 0 0 0 .195.121m-.008-8.246a.21.21 0 0 0 .196-.12.216.216 0 0 0-.094-.298.221.221 0 0 0-.203.395.2.2 0 0 0 .101.023m.645 9.29a.2.2 0 0 0 .125-.044.216.216 0 0 0 .054-.304.22.22 0 0 0-.308-.055.22.22 0 0 0-.05.309.22.22 0 0 0 .179.093m1.797-12.173a.22.22 0 0 0 .027-.308.22.22 0 0 0-.309-.031.22.22 0 0 0-.03.308.21.21 0 0 0 .171.082.22.22 0 0 0 .14-.05m5.558 15.52H24a.22.22 0 0 0-.223.223.22.22 0 0 0 .223.218h.031a.223.223 0 0 0 .223-.222.22.22 0 0 0-.223-.219m4.492-16.227a.2.2 0 0 0 .114.036c.074 0 .148-.04.191-.106a.22.22 0 0 0-.074-.305.226.226 0 0 0-.305.075.22.22 0 0 0 .074.3m-8.199-.937c-.113.05-.164.18-.113.293a.22.22 0 0 0 .203.133.2.2 0 0 0 .086-.02c.113-.047.164-.176.113-.289a.22.22 0 0 0-.289-.117m.192 16.445a.22.22 0 0 0-.293.114.22.22 0 0 0 .117.289.2.2 0 0 0 .086.015.218.218 0 0 0 .09-.418m12.207-7.453a.225.225 0 0 0 .207.235h.015a.221.221 0 0 0 .016-.442.223.223 0 0 0-.238.207m-2.028-6.855a.22.22 0 0 0-.312-.012.22.22 0 0 0-.008.312.22.22 0 0 0 .312.012.225.225 0 0 0 .008-.312m2.23 5.425a.22.22 0 0 0 .013.442h.019a.22.22 0 0 0 .203-.235.225.225 0 0 0-.234-.207m-1.585 6.227c.07 0 .137-.031.18-.094a.22.22 0 0 0-.055-.308.224.224 0 0 0-.309.054.227.227 0 0 0 .055.309.25.25 0 0 0 .129.039m-.16-10.738a.224.224 0 0 0-.051.308.22.22 0 0 0 .18.094.25.25 0 0 0 .128-.039.224.224 0 0 0 .051-.309.224.224 0 0 0-.308-.054m-13.578-.59a.22.22 0 0 0-.012-.313.22.22 0 0 0-.313.012.222.222 0 0 0 .16.371.23.23 0 0 0 .165-.07m14.953 4.156a.22.22 0 0 0 .215.176q.022-.001.046-.008a.223.223 0 0 0 .172-.262.227.227 0 0 0-.265-.168.224.224 0 0 0-.168.262m-14.075 8.59a.22.22 0 0 0-.308.031.22.22 0 0 0 .031.309c.04.035.09.05.14.05a.23.23 0 0 0 .169-.081.214.214 0 0 0-.032-.309m13.77-3.883a.22.22 0 0 0 .137.281.2.2 0 0 0 .07.016.22.22 0 0 0 .207-.148.216.216 0 0 0-.133-.282.217.217 0 0 0-.281.133m-14.64 3.067a.23.23 0 0 0-.313-.012.22.22 0 0 0-.012.312.226.226 0 0 0 .316.012.225.225 0 0 0 .008-.312m1.843 1.503a.215.215 0 0 0-.3.075.22.22 0 0 0 .074.3.2.2 0 0 0 .113.036.22.22 0 0 0 .187-.106.22.22 0 0 0-.074-.305M16.488 18.22a.223.223 0 0 0 .051.308c.04.028.086.04.129.04.07 0 .137-.032.18-.094a.216.216 0 0 0-.055-.305.215.215 0 0 0-.305.05m14.23 11.226a.22.22 0 0 0-.312.008.222.222 0 0 0 .16.371.219.219 0 0 0 .153-.379m-15.5-3.886q.024.001.048-.004a.22.22 0 0 0 .172-.262.224.224 0 0 0-.262-.172.22.22 0 0 0 .043.438m.118-5.118a.222.222 0 0 0 .21.293c.09 0 .177-.058.208-.144a.225.225 0 0 0-.137-.285.22.22 0 0 0-.281.136m17.445 5.086a.22.22 0 0 0 .215-.18.22.22 0 0 0-.172-.261.227.227 0 0 0-.261.176.22.22 0 0 0 .175.258.2.2 0 0 0 .043.007m-5.093 6.395c.113-.05.16-.18.113-.293a.22.22 0 0 0-.293-.113c-.11.05-.16.18-.113.293a.22.22 0 0 0 .203.128.2.2 0 0 0 .09-.015m4.183-4.117a.23.23 0 0 0 .3-.094.225.225 0 0 0-.097-.3.22.22 0 0 0-.297.093.22.22 0 0 0 .094.3M15 21.648a.224.224 0 0 0 .172.262.225.225 0 0 0 .262-.172.22.22 0 0 0-.172-.261.22.22 0 0 0-.262.171m11.34-6.566q.03.007.058.008a.22.22 0 0 0 .211-.164.215.215 0 0 0-.152-.27.22.22 0 0 0-.273.153.224.224 0 0 0 .156.273m-3.582-.234h.031a.22.22 0 0 0 .188-.25c-.012-.121-.125-.203-.247-.192a.226.226 0 0 0-.19.25.22.22 0 0 0 .218.192m-7.926 8.043a.22.22 0 0 0 .207.23l.016.004c.113 0 .21-.09.222-.207a.223.223 0 0 0-.445-.027m10.34-8.051c.008.004.02.004.027.004.11 0 .203-.082.219-.192a.226.226 0 0 0-.188-.25.227.227 0 0 0-.25.192.22.22 0 0 0 .192.246m-10.133 9.066a.22.22 0 0 0-.203.235.22.22 0 0 0 .219.207h.015a.223.223 0 0 0 .207-.239.23.23 0 0 0-.238-.203m14.77-7.226a.223.223 0 0 0-.032-.313.22.22 0 0 0-.308.035.22.22 0 0 0 .031.309c.04.035.09.05.137.05a.23.23 0 0 0 .172-.081m-14.051 9.76a.22.22 0 0 0-.281-.132.223.223 0 0 0-.137.28c.035.09.117.145.21.145a.22.22 0 0 0 .207-.293m16.472-5.886c.032.09.118.148.211.148a.15.15 0 0 0 .07-.015.224.224 0 0 0 .137-.282.226.226 0 0 0-.285-.133.22.22 0 0 0-.133.282m-4.765-5.078a.2.2 0 0 0 .086.015.22.22 0 0 0 .203-.129.226.226 0 0 0-.113-.293.22.22 0 0 0-.29.117c-.05.114 0 .243.114.29m-3.485-.715a.22.22 0 0 0 .22-.219.22.22 0 0 0-.22-.223.223.223 0 0 0-.222.223.224.224 0 0 0 .222.219m1.243 17.402a.23.23 0 0 0-.192.25c.02.113.114.188.219.188h.035a.22.22 0 0 0 .188-.25.226.226 0 0 0-.25-.188m6.726-12.582a.3.3 0 0 0 .102-.023.22.22 0 0 0 .094-.297.22.22 0 0 0-.297-.094.216.216 0 0 0-.094.297.22.22 0 0 0 .195.117m-12.734-3.918a.22.22 0 0 0-.074.305.22.22 0 0 0 .3.074.22.22 0 0 0 .075-.305.22.22 0 0 0-.301-.074m2.289-1a.22.22 0 0 0-.152.274c.027.097.113.16.21.16q.03-.001.06-.008a.227.227 0 0 0 .155-.274.224.224 0 0 0-.273-.152m1.305 17.508a.22.22 0 0 0-.25.187c-.016.121.07.23.191.25h.027a.22.22 0 0 0 .22-.187.22.22 0 0 0-.188-.25m3.64.18q.03.002.059-.008a.22.22 0 0 0 .152-.274.217.217 0 0 0-.273-.148.22.22 0 0 0-.153.27c.032.097.118.16.215.16m3.367-1.739a.22.22 0 0 0 .032-.308.22.22 0 1 0-.34.277.21.21 0 0 0 .172.082.2.2 0 0 0 .136-.05m-.308-11.965a.24.24 0 0 0 .164-.066.24.24 0 0 0 .015-.34.244.244 0 0 0-.34-.012.244.244 0 0 0-.015.34.24.24 0 0 0 .176.078m.562.868c.047.07.125.109.203.109a.26.26 0 0 0 .133-.04.244.244 0 0 0 .07-.335.243.243 0 0 0-.406.266M17.121 26.77a.2.2 0 0 0 .098-.02.24.24 0 0 0 .12-.316.235.235 0 0 0-.316-.125.24.24 0 0 0-.12.32c.038.09.128.14.218.14m.453-7.16a.23.23 0 0 0 .133.038.25.25 0 0 0 .2-.109.243.243 0 0 0-.071-.332.24.24 0 1 0-.262.402M20.539 29.9a.245.245 0 0 0-.328.098.245.245 0 0 0 .102.324q.054.03.113.031a.25.25 0 0 0 .21-.125.24.24 0 0 0-.097-.328m1.098.48a.24.24 0 0 0-.305.15.244.244 0 0 0 .148.308q.042.014.082.015a.25.25 0 0 0 .227-.164.243.243 0 0 0-.152-.308m-3.922-2.523c.043 0 .09-.011.129-.039a.236.236 0 0 0 .07-.332.236.236 0 0 0-.332-.07.24.24 0 0 0 .133.441m5.09 2.817a.243.243 0 0 0-.278.199.24.24 0 0 0 .473.082.247.247 0 0 0-.195-.281m5.98-12.961a.24.24 0 0 0-.043-.336.243.243 0 0 0-.34.043.245.245 0 0 0 .043.336.244.244 0 0 0 .34-.043m-10.156.539a.234.234 0 0 0-.34.016.24.24 0 1 0 .34-.016m12.644 3.629q.03-.001.059-.008a.243.243 0 0 0 .176-.293.243.243 0 0 0-.297-.172.243.243 0 0 0-.172.293c.027.106.125.18.234.18m-1.554 6.855a.242.242 0 1 0-.344.016.24.24 0 0 0 .164.062.26.26 0 0 0 .18-.078m-10.492-11.34a.245.245 0 0 0-.04.34.243.243 0 0 0 .336.04.237.237 0 0 0 .043-.337.24.24 0 0 0-.34-.043m8.214-.293q.055.029.114.028a.25.25 0 0 0 .215-.125.243.243 0 0 0-.098-.328.247.247 0 0 0-.328.097.243.243 0 0 0 .097.328m-5.894-.457q.035.002.078-.015a.24.24 0 1 0-.16-.453.246.246 0 0 0-.149.308c.036.098.13.16.23.16m-1.25.047a.244.244 0 0 0-.098.328.23.23 0 0 0 .211.125q.06.002.117-.027a.243.243 0 0 0 .094-.328.24.24 0 0 0-.324-.098m-3.781 7.68h.015a.24.24 0 0 0 .223-.262.237.237 0 0 0-.258-.218.24.24 0 0 0 .02.48m12.117 5.281a.242.242 0 0 0 .188-.39.24.24 0 0 0-.379.297.24.24 0 0 0 .19.093m-11.97-4.53a.24.24 0 0 0-.176.293c.028.11.125.18.235.18.02 0 .035 0 .058-.004a.247.247 0 0 0 .176-.297.24.24 0 0 0-.293-.172m6.086-8.781.04-.004a.24.24 0 0 0 .198-.277.24.24 0 1 0-.473.078.24.24 0 0 0 .235.203m4.852 13.996a.3.3 0 0 0 .113-.027.245.245 0 0 0 .098-.329.244.244 0 0 0-.329-.097.24.24 0 0 0-.093.328.25.25 0 0 0 .21.125M25.18 16.336c.011 0 .027.004.039.004a.25.25 0 0 0 .238-.203.245.245 0 0 0-.203-.278.247.247 0 0 0-.277.204c-.02.125.07.25.203.273m1.207 14.035a.246.246 0 0 0-.149.309.24.24 0 0 0 .227.164.2.2 0 0 0 .078-.016.24.24 0 0 0 .152-.305.245.245 0 0 0-.308-.152m.11-14.203a.24.24 0 0 0-.306.152.243.243 0 0 0 .149.305.3.3 0 0 0 .082.012.24.24 0 0 0 .226-.16.24.24 0 0 0-.152-.309m-1.274 14.504a.24.24 0 0 0-.196.277c.016.117.121.2.235.2q.022.001.039-.004a.24.24 0 0 0 .199-.278.24.24 0 0 0-.277-.195m-1.196.101-.015.004H24a.24.24 0 0 0-.242.239.24.24 0 0 0 .242.242h.027a.24.24 0 0 0 .243-.242.24.24 0 0 0-.243-.243m7.2-5.214q.03.009.058.007c.11 0 .207-.07.235-.18a.243.243 0 0 0-.176-.292.24.24 0 0 0-.293.176.24.24 0 0 0 .176.289m-.36-4.848a.3.3 0 0 0 .098-.02.25.25 0 0 0 .125-.32.25.25 0 0 0-.32-.125.25.25 0 0 0-.125.32c.043.09.128.145.222.145m-6.887-4.473c.133 0 .243-.11.243-.242a.24.24 0 0 0-.243-.238.24.24 0 0 0-.242.242c.004.133.11.238.242.238m6.188 11.555a.23.23 0 0 0 .129.039.23.23 0 0 0 .203-.11.24.24 0 0 0-.07-.331.24.24 0 0 0-.332.07.236.236 0 0 0 .07.332m-10.633 1.453a.241.241 0 0 0-.297.379.244.244 0 0 0 .34-.043.24.24 0 0 0-.043-.336m11.945-6.14h.02a.24.24 0 0 0 .219-.262.237.237 0 0 0-.258-.219.24.24 0 0 0-.223.258.245.245 0 0 0 .242.222m-15.207-.231a.24.24 0 0 0 .22.262h.019c.125 0 .23-.094.242-.223a.246.246 0 0 0-.223-.258.24.24 0 0 0-.258.219m2.04 5.543a.24.24 0 0 0-.016.34.247.247 0 0 0 .344.016.24.24 0 0 0 .011-.34.24.24 0 0 0-.34-.016m-1.196-7.68c.09 0 .18-.05.223-.14a.247.247 0 0 0-.125-.32.24.24 0 0 0-.317.124.243.243 0 0 0 .122.32.4.4 0 0 0 .097.016m-.344.7a.246.246 0 0 0-.293.175.243.243 0 0 0 .176.293c.02.008.035.008.059.008a.242.242 0 0 0 .058-.477m14.016 5.285q.047.018.094.02a.24.24 0 0 0 .222-.145.24.24 0 1 0-.441-.191.244.244 0 0 0 .125.316m.934-2.602a.24.24 0 0 0-.22-.258.24.24 0 0 0-.038.48h.015a.237.237 0 0 0 .243-.222M18.3 21.438q.048.02.097.019a.26.26 0 0 0 .102-.5.26.26 0 0 0-.34.145.254.254 0 0 0 .14.335m3.48 7.421a.26.26 0 0 0-.34.145.26.26 0 0 0 .243.36c.101 0 .199-.06.242-.16a.265.265 0 0 0-.145-.345m-2.246-1.254a.264.264 0 0 0 0 .372.265.265 0 0 0 .367 0 .257.257 0 0 0 0-.372.26.26 0 0 0-.367 0m1.246.723a.26.26 0 0 0-.363.07.258.258 0 0 0 .215.403.27.27 0 0 0 .219-.113.254.254 0 0 0-.07-.36m2.086.863a.265.265 0 0 0-.308.204.27.27 0 0 0 .207.308.2.2 0 0 0 .05.008c.122 0 .23-.09.254-.211a.26.26 0 0 0-.203-.309m-.113-11.875a.264.264 0 0 0-.207.305.266.266 0 0 0 .258.211c.015 0 .035 0 .05-.004a.263.263 0 0 0 .204-.308.253.253 0 0 0-.305-.204m2.363.504a.26.26 0 0 0 .305-.207.26.26 0 0 0-.207-.304.26.26 0 0 0-.305.207.26.26 0 0 0 .207.304m-1.133-.105a.264.264 0 0 0 .262-.262.262.262 0 1 0-.262.262m-4.09 1.336a.257.257 0 0 0-.37 0 .26.26 0 0 0 0 .367.26.26 0 0 0 .187.074.26.26 0 0 0 .184-.074.26.26 0 0 0 0-.367m-1.081 1.316a.24.24 0 0 0 .144.043.26.26 0 0 0 .219-.113.262.262 0 1 0-.363.07m-.704 4.582a.26.26 0 1 0-.101-.512.26.26 0 0 0-.207.305v.004a.26.26 0 0 0 .258.207q.029.001.05-.004m.297 1.14a.2.2 0 0 0 .098-.019.257.257 0 0 0 .14-.34v-.003a.255.255 0 0 0-.34-.137.26.26 0 0 0-.14.34c.043.097.14.16.242.16m-.722-2.573a.262.262 0 0 0 .523-.004.262.262 0 0 0-.523.004m3.886-5.84a.264.264 0 0 0-.14.344c.043.101.136.16.242.16a.3.3 0 0 0 .101-.02.266.266 0 0 0 .141-.344.266.266 0 0 0-.344-.14m4.633.472a.3.3 0 0 0 .098.02.27.27 0 0 0 .242-.16.264.264 0 0 0-.14-.344.262.262 0 1 0-.2.484m-7.09 8.942a.257.257 0 0 0 .067-.36.255.255 0 0 0-.36-.07.255.255 0 0 0-.07.36c.05.078.133.117.215.117a.35.35 0 0 0 .148-.047m-1.312-4.805a.26.26 0 0 0 .207.305.26.26 0 0 0 .305-.207.26.26 0 0 0-.208-.305.257.257 0 0 0-.304.207m2.969-3.59a.26.26 0 1 0-.29-.43.26.26 0 1 0 .29.43m3.253 10.606H24a.262.262 0 0 0 0 .523h.027a.257.257 0 0 0 .258-.265.263.263 0 0 0-.262-.258m6.028-6.074a.256.256 0 0 0-.258.261.26.26 0 1 0 .52 0 .26.26 0 0 0-.262-.261m-.168-1.176a.26.26 0 0 0-.203.308.26.26 0 0 0 .254.211q.021.001.05-.004a.263.263 0 0 0-.101-.515m-.715-1.703a.26.26 0 0 0 .07-.364.26.26 0 1 0-.43.29h-.003c.05.078.133.117.218.117a.3.3 0 0 0 .145-.043m.418 1.086a.2.2 0 0 0 .098-.02.26.26 0 0 0 .144-.34.266.266 0 0 0-.344-.14.256.256 0 0 0-.136.34.25.25 0 0 0 .238.16m-.398 5.199a.265.265 0 0 0-.364.074.264.264 0 0 0 .074.363.27.27 0 0 0 .145.043.26.26 0 0 0 .219-.117.265.265 0 0 0-.075-.363m-1.106-7.602a.26.26 0 0 0 0 .367c.05.051.117.079.188.079a.26.26 0 1 0-.187-.445m-.559 9.711a.26.26 0 1 0-.289-.43.26.26 0 1 0 .29.43m2.418-3.812c.122 0 .23-.086.254-.211a.26.26 0 0 0-.207-.305.26.26 0 0 0-.304.207.258.258 0 0 0 .257.309m-1.464 2.656a.256.256 0 0 0-.368.004.26.26 0 0 0 0 .367.26.26 0 1 0 .368-.371m-.91-8.977a.264.264 0 0 0-.075-.363.26.26 0 0 0-.36.074.26.26 0 0 0 .071.36.25.25 0 0 0 .145.047.27.27 0 0 0 .218-.118m-2.364 11.094a.2.2 0 0 0 .05-.008.26.26 0 0 0 .204-.304.26.26 0 1 0-.512.101.27.27 0 0 0 .258.211m1.235-.371a.26.26 0 0 0 .14-.34.26.26 0 1 0-.48.2c.039.101.136.16.238.16.035.003.066-.008.102-.02m3.261-3.77a.26.26 0 0 0-.34.145.254.254 0 0 0 .141.34q.048.021.098.02a.27.27 0 0 0 .246-.16h-.004a.263.263 0 0 0-.14-.344m-1.469.372a.279.279 0 1 0-.484-.278.275.275 0 0 0 .102.38q.07.039.14.038c.098 0 .192-.05.242-.14m-3.027 2.293q.04 0 .074-.012a.28.28 0 0 0 .2-.34.28.28 0 0 0-.344-.203.286.286 0 0 0-.2.348.28.28 0 0 0 .27.207m-5.922-5.977a.28.28 0 0 0 .2.344q.04.007.074.008a.28.28 0 0 0 .07-.55.283.283 0 0 0-.344.198m1.27 4.313a.27.27 0 0 0 0 .394.284.284 0 0 0 .398 0 .28.28 0 0 0 0-.395.283.283 0 0 0-.398 0m2.328 1.117a.276.276 0 0 0-.34.199.275.275 0 0 0 .2.344q.034.006.07.007a.28.28 0 0 0 .07-.55m-1.04-.434a.28.28 0 0 0-.382.102.284.284 0 0 0 .102.386.26.26 0 0 0 .14.036.28.28 0 0 0 .242-.137.284.284 0 0 0-.101-.387m-2.44-3.453a.28.28 0 0 0 .28-.281.28.28 0 0 0-.28-.282.28.28 0 0 0-.282.282c0 .156.13.281.281.281m.863 1.875a.29.29 0 0 0-.387-.105.286.286 0 0 0-.102.386.277.277 0 0 0 .383.102.28.28 0 0 0 .106-.383m7.199 1.277a.283.283 0 0 0-.004-.398.28.28 0 0 0-.398.004.28.28 0 0 0 .003.394.28.28 0 0 0 .196.082.3.3 0 0 0 .203-.082m-7.902-1.965q.034 0 .07-.007a.283.283 0 0 0 .2-.344.283.283 0 0 0-.345-.2.283.283 0 0 0-.199.344.28.28 0 0 0 .274.207m4.457 2.844h-.02a.28.28 0 0 0-.281.281.28.28 0 0 0 .281.282h.02a.28.28 0 0 0 .277-.285.276.276 0 0 0-.277-.278m2.297-.062q.075.001.14-.04a.277.277 0 0 0 .102-.382.28.28 0 0 0-.383-.102.284.284 0 0 0-.102.383c.051.09.145.14.242.14m-2.32-8.57a.282.282 0 1 0-.286-.282c0 .152.129.281.285.281m4.378 5.761a.2.2 0 0 0 .07.012.28.28 0 0 0 .274-.211.285.285 0 0 0-.2-.344.28.28 0 0 0-.144.543m-3.266-5.621a.2.2 0 0 0 .07.012.283.283 0 0 0 .075-.555.28.28 0 0 0-.344.203.28.28 0 0 0 .2.34m-2.378-.539a.28.28 0 0 0-.2.348.276.276 0 0 0 .344.195.28.28 0 0 0 .2-.34.284.284 0 0 0-.344-.203m5.71 3.793a.2.2 0 0 0 .07-.012.28.28 0 0 0 .2-.344.283.283 0 0 0-.344-.199.28.28 0 0 0-.195.348.276.276 0 0 0 .27.207m.438.906a.274.274 0 0 0-.281-.277.273.273 0 0 0-.278.277.28.28 0 1 0 .559 0m-2.445-4.219a.286.286 0 0 0-.383.102.284.284 0 0 0 .238.426.284.284 0 0 0 .145-.527m1.008.774a.283.283 0 0 0-.399 0 .28.28 0 0 0 .004.398.284.284 0 0 0 .398 0 .283.283 0 0 0-.003-.398m-7.668 1.027a.277.277 0 0 0 .242.418.27.27 0 0 0 .242-.137.284.284 0 0 0-.102-.386.277.277 0 0 0-.382.105m8.062-.12a.283.283 0 0 0-.102.382c.055.094.145.14.243.14a.26.26 0 0 0 .14-.038.28.28 0 0 0 .106-.383.284.284 0 0 0-.387-.102m-7.09-.411c.07 0 .145-.027.2-.082a.283.283 0 0 0 0-.398.283.283 0 0 0-.399 0 .28.28 0 0 0 0 .398c.055.05.129.082.2.082m.809-1.258a.277.277 0 0 0-.102.383c.051.09.145.14.242.14a.277.277 0 0 0 .242-.418.28.28 0 0 0-.382-.105m5.633 5.528a.3.3 0 0 0-.164-.395.305.305 0 0 0-.395.168.3.3 0 0 0 .168.39.3.3 0 0 0 .39-.164m-.344-1.317a.3.3 0 1 0 .602 0 .3.3 0 0 0-.602 0m-5.985.317a.3.3 0 0 0 .301-.305.3.3 0 0 0-.3-.297.3.3 0 0 0 0 .602m5.149-2.747a.302.302 0 0 0 .426.426.31.31 0 0 0-.004-.43.3.3 0 0 0-.422.004m-.91 5.063a.301.301 0 1 0 .234.555.301.301 0 0 0-.234-.555m1.527-3.719a.3.3 0 0 0 .395.164.301.301 0 0 0-.234-.555.296.296 0 0 0-.16.391m-2.613 3.942H24c-.168 0-.3.132-.3.3 0 .164.136.301.3.301h.012a.304.304 0 0 0 .3-.305c0-.168-.136-.3-.304-.296m-2.637-1.754a.304.304 0 0 0-.394-.164.3.3 0 0 0-.16.394.3.3 0 0 0 .39.164.3.3 0 0 0 .164-.394m3.711-3.72a.29.29 0 0 0 .387-.164.3.3 0 1 0-.555-.23.3.3 0 0 0 .168.395m-3.52 4.638a.3.3 0 0 0 0 .425.3.3 0 0 0 .215.09.3.3 0 0 0 .211-.09.302.302 0 0 0-.425-.425m1.227-4.61q.06 0 .117-.023a.3.3 0 0 0 .16-.395.3.3 0 0 0-.394-.16.302.302 0 0 0 .117.578m1.203-.242a.3.3 0 0 0 .297-.3.3.3 0 0 0-.3-.302.304.304 0 0 0-.302.301c0 .168.141.301.305.301m-2.433.41a.302.302 0 0 0 .425.426.302.302 0 0 0-.425-.426m4.882 4.86a.3.3 0 0 0-.003-.426.3.3 0 0 0-.426 0 .3.3 0 0 0 .004.426c.058.058.136.09.21.09a.3.3 0 0 0 .215-.09m-5.628-3.743a.3.3 0 1 0 .554.23.303.303 0 0 0-.164-.394.305.305 0 0 0-.39.164m2.097 3.942a.305.305 0 0 0-.394.164.297.297 0 0 0 .164.39q.054.029.113.028c.117 0 .23-.074.277-.188a.3.3 0 0 0-.16-.394m.809-4.32a.317.317 0 0 0-.41-.192.317.317 0 0 0-.192.41.32.32 0 0 0 .41.196.323.323 0 0 0 .192-.415m-1.07 1.933a.32.32 0 0 0-.372-.262.324.324 0 0 0 .055.641q.03-.001.059-.008a.314.314 0 0 0 .257-.37m3.328.106a.32.32 0 0 0-.262-.372.32.32 0 0 0-.371.262.32.32 0 0 0 .316.375c.156 0 .29-.113.317-.265m-.68-1.47a.317.317 0 0 0-.117.438c.062.102.168.16.277.16a.35.35 0 0 0 .164-.043.32.32 0 0 0 .113-.437v-.004a.32.32 0 0 0-.437-.113m-2.602.005a.327.327 0 0 0-.441.117.316.316 0 0 0 .121.437.314.314 0 0 0 .434-.117.316.316 0 0 0-.114-.437m-.027 2.207a.322.322 0 0 0 .246.527.33.33 0 0 0 .246-.113.322.322 0 0 0-.492-.414m2.629.449a.325.325 0 0 0 .035-.453.32.32 0 0 0-.453-.04.325.325 0 0 0-.035.454.32.32 0 0 0 .242.113.33.33 0 0 0 .21-.074M24 24.875h-.016a.317.317 0 0 0-.308.32c0 .176.144.32.324.32h.008a.32.32 0 0 0 .316-.324.317.317 0 0 0-.324-.316m.871-2.848a.317.317 0 0 0-.191-.41.32.32 0 0 0-.41.192.32.32 0 0 0 .19.41.3.3 0 0 0 .11.023.32.32 0 0 0 .301-.215m0 0"/></g><g clip-path="url(#e)"><path fill="url(#f)" d="M18.11 14.758v17.496h11.78V14.758Zm0 0"/></g><g clip-path="url(#g)"><g clip-path="url(#h)"><path fill="url(#i)" d="M15.898 21.082v15.227h16.16V21.082Zm0 0"/></g></g><g clip-path="url(#j)"><g clip-path="url(#k)"><path fill="url(#l)" d="M15.898 10.602v15.332h16.16V10.602Zm0 0"/></g></g><g clip-path="url(#m)"><g clip-path="url(#n)"><path fill="url(#o)" d="M15.898 10.602v25.707h4.852V10.602Zm0 0"/></g></g></svg>